<?xml version="1.0" encoding="UTF-8"?>
<svg id="Layer_2" data-name="Layer 2" xmlns="http://www.w3.org/2000/svg" viewBox="0 0 292.88 432.27">
  <defs>
    <style>
      .cls-1 {
        fill: #c9691c;
      }

      .cls-1, .cls-2, .cls-3, .cls-4, .cls-5, .cls-6, .cls-7, .cls-8, .cls-9, .cls-10, .cls-11, .cls-12, .cls-13, .cls-14, .cls-15, .cls-16, .cls-17, .cls-18, .cls-19, .cls-20, .cls-21, .cls-22, .cls-23, .cls-24, .cls-25, .cls-26 {
        stroke-width: 0px;
      }

      .cls-2 {
        fill: #ebe08e;
      }

      .cls-3 {
        fill: #fbfcfc;
      }

      .cls-4 {
        fill: #deeef3;
      }

      .cls-5 {
        fill: #141b25;
      }

      .cls-6 {
        fill: #99c5b8;
      }

      .cls-7 {
        fill: #bad9cb;
      }

      .cls-8 {
        fill: #bbddde;
      }

      .cls-9 {
        fill: #76b5b7;
      }

      .cls-10 {
        fill: #2193b5;
      }

      .cls-11 {
        fill: #1d6b6c;
      }

      .cls-12 {
        fill: #1c5d64;
      }

      .cls-13 {
        fill: #104a56;
      }

      .cls-14 {
        fill: #424232;
      }

      .cls-15 {
        fill: #d4bc55;
      }

      .cls-16 {
        fill: #062c38;
      }

      .cls-17 {
        fill: #7bcdd0;
      }

      .cls-18 {
        fill: #c8a542;
      }

      .cls-19 {
        fill: #2f7c7b;
      }

      .cls-20 {
        fill: #3e1427;
      }

      .cls-21 {
        fill: #103c41;
      }

      .cls-22 {
        fill: #eadb4c;
      }

      .cls-23 {
        fill: #151522;
      }

      .cls-24 {
        fill: #161817;
      }

      .cls-25 {
        fill: #185873;
      }

      .cls-26 {
        fill: #241c25;
      }
    </style>
  </defs>
  <g id="Layer_1-2" data-name="Layer 1">
    <g>
      <path class="cls-12" d="M105.58,187.99c15.19,20.74,24.65,47.02,41.5,66.5,3.52-1.01,32.1-56.52,38-62.5.96-.98,1.83-1.75,3-2.5,1.46-.93,16.38-7.81,17-5.5-1.26,2.64-4.07,15.43-8,24-.69,1.51-15.11,27.6-16,29-2.74,4.3-27.91,36.91-30.25,37.5-1.24.31-5.65.06-7-.5-3.56-1.47-26.93-31.25-30.25-36.5-2.31-3.66-13.49-24.66-15.5-29-2.21-4.77-3.51-10.4-5.5-15.25-1.74-4.25-5.48-9.51-4.5-11.25,5.7,2.62,11.45,4.46,17.5,6Z"/>
      <path class="cls-19" d="M271.08,179.99c-.69.12-.41-1.04-.75-1-2.73.28-32.76,18.71-50.75,20.5-.62-2.15-5.31-15.03-4.75-16,25.96-11.87,54.27-20.29,76.75-38.5-2.75,25.93-19.76,32.64-20.5,35Z"/>
      <path class="cls-19" d="M271.08,181.49c-.58,4.41.75,13.38-2,27.25-.52,2.62-3.15,6.84-3.5,9.25-8.86,9.51-33.47,13.37-37.25,10.5-.92-.7-5.87-19.2-6.75-22,7.67-1.21,14.82-3.72,22-6.5,8.68-3.36,20.02-8.07,25.5-16,.8-1.16.76-2.73,2-2.5Z"/>
      <path class="cls-19" d="M292.08,137.99c-14.04,16.39-80.92,39.25-85.25,43-1.35,1.17-1.12,1.68-1.75,3-.62-2.31-15.54,4.57-17,5.5,13.92-27.26,73.74-32.52,103.5-60,.25,2.83.5,5.65.5,8.5Z"/>
      <path class="cls-19" d="M105.58,187.99c-6.05-1.54-11.8-3.38-17.5-6-1.64-.75-6.32-4.3-11.25-6.5-26.04-11.64-54.19-19.95-76.25-39-.07-2.95-.23-4.99,0-8,24.02,21.17,80.17,35.46,96.25,49,3.59,3.03,6.02,6.77,8.75,10.5Z"/>
      <path class="cls-23" d="M246.08,41.99c1.32.75,3.54,1.89,4.5,2.5.84.53,2.1,1.22,2.5,1.5,1.05.72,2.53,1.73,3.5,2.5,15.53,12.23,21.45,29.55,27,47.5l-6.5,2.5c.43-10.17-8.91-28.38-15.5-36.25-8.84-10.55-22.61-16.39-34.5-22.75-.9-2.21-2.39-6.71-3.5-8.5,7.25,4.09,15.28,6.89,22.5,11Z"/>
      <path class="cls-5" d="M69.58,29.99c-1.61,2.45-2.83,5.79-4,8.5-21.55,8.79-51.55,31.89-50.5,57.5l-7-2.5c5.07-15.96,12.27-32.51,25.5-43.5.68-.56,1.82-1.5,2.5-2,.16-.12,2.12-1.08,3.5-2,1.28-.85,2.69-1.69,4-2.5,8.06-4.95,17.65-8.92,26-13.5Z"/>
      <path class="cls-21" d="M291.58,129.49c-29.76,27.48-89.58,32.74-103.5,60-1.17.75-2.04,1.52-3,2.5,10.98-33.03,76.59-36.19,106-65.5.16,1.32.44,2.29.5,3Z"/>
      <g>
        <g>
          <path class="cls-2" d="M266.08,16.49c-.98-.18-1.46,4.74-3,8.25-2.78,6.35-7.77,13.86-10,21.25-.4-.28-1.66-.97-2.5-1.5,3.65-6.62,5.41-14.17,8.5-21,1.25-2.77,5.09-13.13,7-7Z"/>
          <path class="cls-15" d="M259.08,23.49c-3.09,6.83-4.85,14.38-8.5,21-.96-.61-3.18-1.75-4.5-2.5,2.04-4.76,9.19-16.18,13-18.5Z"/>
          <path class="cls-15" d="M266.08,16.49l-9.5,32c-.97-.77-2.45-1.78-3.5-2.5,2.23-7.39,7.22-14.9,10-21.25,1.54-3.51,2.02-8.43,3-8.25Z"/>
        </g>
        <g>
          <path class="cls-2" d="M37.58,33.99c-10.19-14.78-3.15.18,2,12-1.38.92-3.34,1.88-3.5,2-3.57-9.31-8.02-18.14-11.5-27.5-.77-2.08-4.48-5.9.75-5.5,4.34,6.07,8.4,12.53,12.25,19Z"/>
          <path class="cls-18" d="M36.08,47.99c-.68.5-1.82,1.44-2.5,2l-9-29.5c3.48,9.36,7.93,18.19,11.5,27.5Z"/>
          <path class="cls-15" d="M37.58,33.99c1.92,3.22,3.28,6.78,6,9.5-1.31.81-2.72,1.65-4,2.5-5.15-11.82-12.19-26.78-2-12Z"/>
        </g>
      </g>
      <path class="cls-11" d="M212.58,146.49c-.06.01.44-.96-.75-1-1.06-.04-11.94,5.98-19.5,8.5-9.04,3.01-24.74,6.92-34,7.5-19.97,1.25-49.71-6.01-68-14.5-6.39-2.97-13.27-10.1-16.25-7-3.21-6.6-4.98-11.81-7.5-18.5,33.87,46.42,132.61,48.5,160.5-4-.73,8.38-8.99,22.19-14.5,29Z"/>
      <g>
        <path class="cls-23" d="M291.58,144.99c-22.48,18.21-50.79,26.63-76.75,38.5-.56.97,4.13,13.85,4.75,16,.68,2.36,1.26,4.64,2,7,.88,2.8,5.83,21.3,6.75,22,3.78,2.87,28.39-.99,37.25-10.5-.13.88-.14,5.34,0,6-6.17,9.43-17.98,12.1-28.5,13.25.79,8.83,3.59,17.01,6.5,25.25.05.15-.05.35,0,.5,6.96,19.31,18.51,33.25,18.5,35.25,0,1.88-4.75,3.04-5,3.25-25.45-25.13-30.31-60.95-32-64.25-.35-.69-7.39-6.01-10.5-11-4.35-6.99-6.21-17.45-7-18-1.1-.76-8.43.05-10.5-.25,3.93-8.57,6.74-21.36,8-24,.63-1.32.4-1.83,1.75-3,4.33-3.75,71.21-26.61,85.25-43,0,2.48-.24,4.55-.5,7Z"/>
        <g>
          <path class="cls-5" d="M289.08,355.99c-.62,2-5.37,12.3-8,9.5,5.78-14.46,6.35-25.37-3.75-38-1.75-.04.83,16.23-19,28l-.75-.75c6.61-5.72,19.59-27.73,9.75-34.25-11.06-7.33-25.03,14.36-31.5,21-.71-.33.85-3.87,1.25-5.5,11.37-20.33,24.86-34.74,44.5-12.25,8.2,9.38,11.27,20.13,7.5,32.25Z"/>
          <path class="cls-21" d="M285.58,292.99c-.04,2.89.2,5.88,0,8.75-.01.19-.99,1.65-1,1.75-3.3-.92-11.34.34-11-3.25,4.07-4.56,5.38-15.45,12-7.25Z"/>
          <path class="cls-21" d="M289.58,355.99c-3.02,9.01-8.62,16.84-15.25,23.5l-.75-.75c2.43-3.39,6.02-9.54,7.5-13.25,2.63,2.8,7.38-7.5,8-9.5h.5Z"/>
          <path class="cls-8" d="M243.58,262.99c-.05-.15.05-.35,0-.5,3.41-3.11,24.65-13.41,28.25-12.5,8.77,2.22-14.37,28.39-28.25,13Z"/>
          <g>
            <path class="cls-19" d="M285.58,292.99c-6.62-8.2-7.93,2.69-12,7.25-.34,3.59,7.7,2.33,11,3.25-.23,2.09-1.12,1.96-1,3.25.23,2.57,15.96,19.5,6,49.25h-.5c3.77-12.12.7-22.87-7.5-32.25-19.64-22.49-33.13-8.08-44.5,12.25,3.14-12.96,9.62-25.68,20-34.5.25-.21,4.99-1.37,5-3.25,0-2-11.54-15.94-18.5-35.25,13.88,15.39,37.02-10.78,28.25-13-3.6-.91-24.84,9.39-28.25,12.5-2.91-8.24-5.71-16.42-6.5-25.25,10.52-1.15,22.33-3.82,28.5-13.25.96,4.34,20.47,30.93,20,69Z"/>
            <path class="cls-7" d="M274.83,269.49c.62,5.29-2.22,5.42,3.75,8.75-9.99,1.4-4.18,12.11-9.75,2.25-11.91.24.86-.32-3.5-10,1.63-.89,3.56,5.05,9.5-1Z"/>
          </g>
        </g>
      </g>
      <g>
        <path class="cls-23" d="M88.08,181.99c-.98,1.74,2.76,7,4.5,11.25,1.99,4.85,3.29,10.48,5.5,15.25-2.17.32-9.22-.54-10.5.25-.76.47-4.32,12.14-7,16.5-3.17,5.16-10.12,10.34-10.5,11-1.08,1.85-5.48,23.05-15,40-5.1,9.07-12.2,17.04-18.5,25.25-.21-.19-4.8-1.65-5-2.75-.22-1.2,8.57-13.23,12.5-21,6.57-12.98,11.4-26.56,13.5-41-1.04-1.38-19.13,3.17-30.5-12.75.59-1.54,1.11-3.32,1-5,4.73,7.72,30.44,12.17,37.75,8.5,2.09-1.05,6.18-16.81,7.25-20,.85-2.55,1.73-4.89,2.5-7.5.65-2.22,5.12-14.93,5-15.75-.64-4.44-64.27-23.5-79.5-40.75-.34-2.5-.44-4.5-.5-7,22.06,19.05,50.21,27.36,76.25,39,4.93,2.2,9.61,5.75,11.25,6.5Z"/>
        <path class="cls-19" d="M64.58,204.49c2.79.78,5.86,1.77,8.5,3-1.07,3.19-5.16,18.95-7.25,20-7.31,3.67-33.02-.78-37.75-8.5-2.72-4.45-4.96-26.17-5.5-32.5,11.99,10.28,27.17,13.87,42,18Z"/>
        <path class="cls-23" d="M52.08,328.49c.41,1.17,5.18,13.16,4.25,13.5-5.8-6.91-20.46-28.36-31-21.5-10.37,6.74,3.39,28.41,10.25,34.25l-.25,1.25c-10.83-7-19.6-14.7-20-28.5-10.25,12.68-9.27,24.53-3.75,39-2.08-2.88-2.56-6.01-6.5-7-4.66-13.31-3.56-24.06,5.5-35.25,15.13-18.7,28.47-11.92,41.5,4.25Z"/>
        <g>
          <path class="cls-16" d="M9.08,305.99c-.13-1.42-1.33-3.65-1.5-5l1.75,2.5,7.75-5.75-6-7.25c6.47-3,11.95,5.33,11,7.75l-13,7.75Z"/>
          <path class="cls-13" d="M7.58,300.99c-.17-1.34-.36-2.66-.5-4,1.96-1.53,1.42-5.3,4-6.5l6,7.25-7.75,5.75-1.75-2.5Z"/>
        </g>
        <path class="cls-21" d="M11.58,366.49c1.89,4.96,12.54,22.55.5,7.25-2.05-2.61-3.93-5.82-5.5-8.75.41-1.03-.98-4.02-1.5-5.5,3.94.99,4.42,4.12,6.5,7Z"/>
        <g>
          <path class="cls-19" d="M36.58,301.49c8.09,7.39,12,17.07,15.5,27-13.03-16.17-26.37-22.95-41.5-4.25-9.06,11.19-10.16,21.94-5.5,35.25.52,1.48,1.91,4.47,1.5,5.5-7.62-14.19-8.4-28.91-3.5-44.25,1.45-4.54,6.34-11.19,6-14.75l13-7.75c.95-2.42-4.53-10.75-11-7.75-2.58,1.2-2.04,4.97-4,6.5-1.81-17.07,3.56-36.99,10-52.75,2.81-6.89,7.38-13.34,10-20.25,11.37,15.92,29.46,11.37,30.5,12.75-2.1,14.44-6.93,28.02-13.5,41-3.93,7.77-12.72,19.8-12.5,21,.2,1.1,4.79,2.56,5,2.75Z"/>
          <path class="cls-8" d="M19.83,249.99c3.18-.73,25.26,9.46,30.25,11.25-11.6,18.82-40.11-9-30.25-11.25Z"/>
          <path class="cls-7" d="M27.83,268.49c-.18,6.84-2.47,6.26,3.75,10.25-7.29.79-5.22.87-7.75,6.75-2.38-10.31-13.64,0-4.75-9.75-4.77-13.64,1.65,2.59,8.75-7.25Z"/>
        </g>
        <g>
          <path class="cls-12" d="M24.08,179.99c-1.06,3.32,8.45,8.44,12.25,10.5,9.26,5.03,22.21,9.56,32.5,12,1.42,3.12-3.91-.76-4.25,2-14.83-4.13-30.01-7.72-42-18-.21-2.46-.46-5.08-1-7.5.11.07.9.08,2.5,1Z"/>
          <path class="cls-21" d="M75.58,199.99c-.77,2.61-1.65,4.95-2.5,7.5-2.64-1.23-5.71-2.22-8.5-3,.34-2.76,5.67,1.12,4.25-2-10.29-2.44-23.24-6.97-32.5-12-3.8-2.06-13.31-7.18-12.25-10.5,13.35,7.68,36.37,15.1,51.5,20Z"/>
        </g>
        <g>
          <path class="cls-19" d="M75.58,199.99c-15.13-4.9-38.15-12.32-51.5-20-1.6-.92-2.39-.93-2.5-1-12.86-8.11-18.52-20.96-20.5-35.5,15.23,17.25,78.86,36.31,79.5,40.75.12.82-4.35,13.53-5,15.75Z"/>
          <path class="cls-5" d="M34.83,170.49c1.21-.48,25.54,8.14,20.25,12.25-2.52,3.06-27.62-5.39-20.25-12.25Z"/>
        </g>
      </g>
      <g>
        <path class="cls-21" d="M271.08,179.99c-.11.36.06,1.01,0,1.5-1.24-.23-1.2,1.34-2,2.5l-3.75.5c-6.05,4.73-19.93,9.73-21.75,15.5-7.18,2.78-14.33,5.29-22,6.5-.74-2.36-1.32-4.64-2-7,17.99-1.79,48.02-20.22,50.75-20.5.34-.04.06,1.12.75,1Z"/>
        <path class="cls-12" d="M269.08,183.99c-5.48,7.93-16.82,12.64-25.5,16,1.82-5.77,15.7-10.77,21.75-15.5l3.75-.5Z"/>
      </g>
      <g>
        <path class="cls-19" d="M91.58,299.99c-4.29,1.52-3.23,2.28-6,5.5-1.57-7.2-8.6-20.04-9.5-24.75-2.62-13.7,3.18-36.59,16.5-43.25,18.25,17.32,12.61,43.39,9.5,65.75-.74.68-2.5-6.08-10.5-3.25Z"/>
        <path class="cls-19" d="M102.08,316.49c2.87,4.81,17.82,38.24,19,42.75.17.65-.49.74-.5,1.25-5.03-3.71-17.15-5.15-23.25-4.5-3.83.41-23.81,6.33-17.75,12-5.33,4.16-8.58,10.16-12.5,15.5,3.84-16.88,17.82-58.62,19-69.5,2.93,8.6,11.99,11.93,16,2.5Z"/>
        <path class="cls-19" d="M207.58,304.49c-3.59-5.38-5.65-6.72-11.5-4-2.73,1.27-2.37,2.44-3.25,2.5-3.53-20.55-5.56-48.88,12.25-63.5,7.19,6.28,13.91,20.8,14.5,30.25,1.02,16.42-10.65,28.54-12,34.75Z"/>
        <path class="cls-19" d="M193.58,318.49c4.95,4.84,11.64,5.52,13.75-2l1.75,2c3.09,15.67,11.98,40.73,17,61-2.63-3.56-4.41-7.14-8-10-6.55-14.25-32.09-16.56-44-8.5l17.5-44.75c1.24-1.02.59.87,2,2.25Z"/>
        <path class="cls-17" d="M120.58,360.49c1.3.96,5.5,7.05,6.5,8.75,9.03,15.31-1.23-.07-5.75-3.25-12.14-8.53-30.22-6.99-41.75,2-6.06-5.67,13.92-11.59,17.75-12,6.1-.65,18.22.79,23.25,4.5Z"/>
        <path class="cls-17" d="M218.08,369.49c-17.96-14.28-45.56-11.87-55.25,10.5.49-5.17,7.27-16.3,11.25-19,11.91-8.06,37.45-5.75,44,8.5Z"/>
        <g>
          <path class="cls-16" d="M91.58,299.99c.71.98.26.83-.5,2-8.52,13.03,4.98,22.7,9.5,13,3.28-.3,1.07.77,1.5,1.5-4.01,9.43-13.07,6.1-16-2.5.11-1.01.8-2.67.5-5.75-.01-.15-.85-2.05-1-2.75,2.77-3.22,1.71-3.98,6-5.5Z"/>
          <path class="cls-22" d="M100.58,314.99c-4.52,9.7-18.02.03-9.5-13,8.96-3.17,12.89,5.73,9.5,13Z"/>
        </g>
        <g>
          <path class="cls-21" d="M207.58,304.49c-1.14,5.27.51,8.98,1.5,14l-1.75-2c-2.11,7.52-8.8,6.84-13.75,2,1.75-1.64,7.92,4.74,11-2,2.42-5.29,1.78-15.71-6-15l-2.5-1c5.85-2.72,7.91-1.38,11.5,4Z"/>
          <path class="cls-22" d="M198.58,301.49c7.78-.71,8.42,9.71,6,15-11.26,10.15-16.39-14.05-6-15Z"/>
        </g>
        <g>
          <path class="cls-23" d="M205.08,239.49c-17.81,14.62-15.78,42.95-12.25,63.5.88-.06.52-1.23,3.25-2.5l2.5,1c-10.39.95-5.26,25.15,6,15-3.08,6.74-9.25.36-11,2-1.41-1.38-.76-3.27-2-2.25l-17.5,44.75c-3.98,2.7-10.76,13.83-11.25,19,9.69-22.37,37.29-24.78,55.25-10.5,3.59,2.86,5.37,6.44,8,10,2.38,9.62,7.96,20.76,3,34-6.07,16.19-24.76,20.98-40.25,17.5-5.23-1.17-18.6-11.43-20-13-1.69-1.89-2.6-4.12-3.25-6.5-.06-.2.83-1.28,0-4.25-7.42-26.68-14.68-45.98-6.5-74.5,7.48-26.07,24.97-35.26,25.5-37.5.23-.96-2.77-18.83-3.5-19.5-1.03-.93-26.62-1.05-27.75-.25-2.49,1.76,5.88,10.08-10,8-.78-.56.28-7.44-.5-8-1.18-.84-27.67-.59-29,0-.99.44-4.04,20.21-3.75,21.25.16.58,6.71,4.31,7.75,5.25,19.88,17.98,26.47,48.54,23.25,74.25-.61,4.87-7.26,31.6-9,35.25-2.66,5.56-18.93,17.94-24.75,19.5-15.51,4.15-34.61-1.79-41.25-17.5-4.44-10.5-1.33-19.76,1-30,3.92-5.34,7.17-11.34,12.5-15.5,11.53-8.99,29.61-10.53,41.75-2,4.52,3.18,14.78,18.56,5.75,3.25-1-1.7-5.2-7.79-6.5-8.75.01-.51.67-.6.5-1.25-1.18-4.51-16.13-37.94-19-42.75-.43-.73,1.78-1.8-1.5-1.5,3.39-7.27-.54-16.17-9.5-13,.76-1.17,1.21-1.02.5-2,8-2.83,9.76,3.93,10.5,3.25,3.11-22.36,8.75-48.43-9.5-65.75,8.45-4.22,12.29-2.56,21,0,3.32,5.25,26.69,35.03,30.25,36.5,1.35.56,5.76.81,7,.5,2.34-.59,27.51-33.2,30.25-37.5,8.64-3.99,16.7-3.88,24,2.5Z"/>
          <path class="cls-9" d="M129.58,407.99c-.23,2.73-3.11,9.55-4.25,10-1.7.67-34.77.58-36.5,0-1.88-.63-3.25-8.02-3.75-10h44.5Z"/>
          <path class="cls-9" d="M209.58,408.49c-.45,1.47-2.24,9.08-3.25,9.5-1.64.68-33.81.53-35.5,0-2.16-.68-3.93-6.84-4.25-9,0-.34-.12-.91.25-1,3.91-.93,35.59.34,42.75.5Z"/>
          <g>
            <path class="cls-19" d="M129.58,407.99h-44.5c-10.17-40.42,20.76-56.06,38-25.75,3.74,6.57,7.12,18.27,6.5,25.75Z"/>
            <path class="cls-8" d="M100.33,371.49c15.55-2.02,13.95,37.3-2.5,28.5-7.63-4.08-6.81-27.29,2.5-28.5Z"/>
            <path class="cls-6" d="M117.33,380.99c8.95.21,1.68,11.27-1.25,1.75l1.25-1.75Z"/>
          </g>
          <g>
            <path class="cls-19" d="M209.58,408.49c-7.16-.16-38.84-1.43-42.75-.5-.37.09-.25.66-.25,1-1.77-11.84,5.35-31.18,15.25-38.5,18.91-13.98,36.71,8.66,27.75,38Z"/>
            <path class="cls-8" d="M193.83,371.49c12.33-.65,13.21,27.48,3.5,30-15.76,4.09-15.49-29.36-3.5-30Z"/>
          </g>
        </g>
      </g>
      <g>
        <path class="cls-8" d="M63.08,47.49c-.06.16-.7.56-1.5,3-1.41,4.33-3.68,8.02-4.5,12.75-3.7,21.19,2.22,38.94,9.5,58.25,2.52,6.69,4.29,11.9,7.5,18.5,1.12,2.3,2.67,4.56,4,6.75-22.71-5.2-61.88-23.26-63-50.75-1.05-25.61,28.95-48.71,50.5-57.5-2.35,5.42-2.34,8.56-2.5,9Z"/>
        <g>
          <path class="cls-3" d="M31.33,115.49c10.59,1.35-.44,13.91-2.25,2.25l2.25-2.25Z"/>
          <path class="cls-4" d="M37.83,69.99h2.5c6.37,8.17-9.27,7.45-2.5,0Z"/>
          <path class="cls-3" d="M36.33,83.49h2.5c6.24,7.04-7.94,8.13-2.5,0Z"/>
          <path class="cls-4" d="M33.83,109.49h2.5c4.99,6.03-7.74,6.67-2.5,0Z"/>
          <path class="cls-8" d="M47.83,92.99h2.5c4.76,5.45-6.02,6.61-2.5,0Z"/>
          <path class="cls-4" d="M31.33,82.49c2.56-1.1,1.95,5.54,1.5,6.5-3.77.39-2.42-3.03-1.5-6.5Z"/>
          <path class="cls-4" d="M25.83,90.49h1.5c4.34,5.71-7.03,5.43-1.5,0Z"/>
          <path class="cls-4" d="M36.33,104.49l1.75.25c1.51,6.67-7,1.92-1.75-.25Z"/>
          <path class="cls-4" d="M33.33,90.49c3.18-.16-.95,6.19-1.25.75l1.25-.75Z"/>
        </g>
      </g>
      <g>
        <path class="cls-8" d="M277.08,98.49c-1,23.95-35.71,41.23-55.75,46.5-2.82.74-6,.87-8.75,1.5,5.51-6.81,13.77-20.62,14.5-29,10.13-19.08,11.44-42.27,5.5-62.75-.53-1.83-3.13-6.19-3.5-7.25-.14-.39-.8-5.05-2-8,11.89,6.36,25.66,12.2,34.5,22.75,6.59,7.87,15.93,26.08,15.5,36.25Z"/>
        <g>
          <path class="cls-3" d="M244.33,114.99l12.75,3.75c-10.04,2-4.34,6.16-8.75,6.75-2.23-1.89.85-4.62.75-5.75-.19-2.23-5.27-3-4.75-4.75Z"/>
          <path class="cls-3" d="M238.83,100.99c12.04.56-.6,14.54-1.75,1.75l1.75-1.75Z"/>
          <path class="cls-4" d="M243.83,60.99l3,.5c6.03,10.04-11.18,7.04-3-.5Z"/>
          <path class="cls-4" d="M237.83,129.99l3.25,2.25c-.58,9.98-12.43,1.79-3.25-2.25Z"/>
          <path class="cls-3" d="M262.33,84.49l3,.5c5.26,9.52-11.03,6.55-3-.5Z"/>
          <path class="cls-4" d="M244.83,70.49l2.5.5c6.03,9.54-9.2,7.98-2.5-.5Z"/>
          <path class="cls-3" d="M260.33,93.99l3.75,1.25c1.5,8.22-9.43,4.59-3.75-1.25Z"/>
          <path class="cls-4" d="M245.83,80.49h2.5c4.96,6.84-7.3,6.74-2.5,0Z"/>
          <path class="cls-4" d="M253.33,67.49c5.74.51.98,5.3-.25,2.75l.25-2.75Z"/>
        </g>
      </g>
      <g>
        <path class="cls-3" d="M223.58,30.99c1.11,1.79,2.6,6.29,3.5,8.5,1.2,2.95,1.86,7.61,2,8,.15,2.47-1.02,3.75-1,6.5-2,.13-2.74,4.45-4.5,6-.83-6.4-1.88-12.79-5-18.5C200.05,7.59,135.2.23,102.08,16.99c-16.77,8.48-29.34,22.4-32,41.5h-.5c-.17-1.24-3.59-5.48-4.5-7-.72-1.21-1.45-2.69-2-4,.16-.44.15-3.58,2.5-9,1.17-2.71,2.39-6.05,4-8.5C92.26-4.58,160.86-5.83,194.83,8.99c8.59,3.75,23.85,14.09,28.75,22Z"/>
        <path class="cls-4" d="M218.58,41.49c-8.79,18.39-19.7,36.12-33,51.5-.77-2.2-3.92-5.65-5.5-7.5-1.1-1.29-10.47-10.9-11.25-11-1.15-.14-4.53,3.68-5.75,4.5-1.9-.26-3.59-.38-5.5-.5l-55.5-61.5C135.2.23,200.05,7.59,218.58,41.49Z"/>
        <path class="cls-17" d="M157.58,78.49c-13.38-.85-40.65.37-42.5,18.5-18.15-8.4-34.94-20.89-45-38.5,2.66-19.1,15.23-33.02,32-41.5l55.5,61.5Z"/>
        <path class="cls-20" d="M115.08,96.99c-.02.16,0,.33,0,.5-.08,1.5.47,1.62.5,2,.94,11.75,14.51,35.46,23,44-1.68-.38-.25,1.88-2.25,3-2.17,1.21-7.35.14-9.75,0v-.5c10.53.4,13.79-1.86,9.25-3.5-1.89-.68-19.05-.32-38-11.5-39.41-23.26-27.68-68.38-28.25-72.5h.5c10.06,17.61,26.85,30.1,45,38.5Z"/>
        <path class="cls-23" d="M227.08,117.49c-27.89,52.5-126.63,50.42-160.5,4-7.28-19.31-13.2-37.06-9.5-58.25.82-4.73,3.09-8.42,4.5-12.75,4.96-2.99.31,7.74,0,10.25-3.83,30.64,4.88,60.72,33.25,76.25,9.67,5.3,20.74,8.86,31.75,9.5,2.4.14,7.58,1.21,9.75,0,2-1.12.57-3.38,2.25-3,2.41,2.43,6.18,5.89,9.5,6.5,4.74.87,5.91.06,9.5-2.5,1.31-.93,3.39-2.83,4.5-4,1.57.52,2.56,6.59,4.5,3,42.34-6.19,66.83-34.42,64-77.75-.31-4.77-2.47-9.91-2.5-14.75-.02-2.75,1.15-4.03,1-6.5.37,1.06,2.97,5.42,3.5,7.25,5.94,20.48,4.63,43.67-5.5,62.75Z"/>
        <path class="cls-22" d="M69.58,58.49c.57,4.12-11.16,49.24,28.25,72.5,18.95,11.18,36.11,10.82,38,11.5,4.54,1.64,1.28,3.9-9.25,3.5-16.34-.61-38.96-11.65-49.5-24.25-15.45-18.48-18.18-47.72-12-70.25.91,1.52,4.33,5.76,4.5,7Z"/>
        <path class="cls-22" d="M228.08,53.99c.03,4.84,2.19,9.98,2.5,14.75,2.83,43.33-21.66,71.56-64,77.75-2.05.7-3.36-3.74-2.25-4.5,44.26-10.02,64.46-34.49,59.25-80.5-.06-.49.06-1.01,0-1.5,1.76-1.55,2.5-5.87,4.5-6Z"/>
        <path class="cls-17" d="M223.58,59.99c.06.49-.06,1.01,0,1.5-10.26,13.68-23.16,25.17-37.5,34.5-.07-.74-.31-2.46-.5-3,13.3-15.38,24.21-33.11,33-51.5,3.12,5.71,4.17,12.1,5,18.5Z"/>
        <path class="cls-24" d="M65.08,51.49c-6.18,22.53-3.45,51.77,12,70.25,10.54,12.6,33.16,23.64,49.5,24.25v.5c-11.01-.64-22.08-4.2-31.75-9.5-28.37-15.53-37.08-45.61-33.25-76.25.31-2.51,4.96-13.24,0-10.25.8-2.44,1.44-2.84,1.5-3,.55,1.31,1.28,2.79,2,4Z"/>
        <path class="cls-17" d="M180.08,85.49c-5.74-3.67-10.2-5.57-17-6.5,1.22-.82,4.6-4.64,5.75-4.5.78.1,10.15,9.71,11.25,11Z"/>
        <path class="cls-20" d="M166.58,146.49c-1.94,3.59-2.93-2.48-4.5-3,8.38-8.79,23.36-33.04,24-45,.04-.66.03-1.34,0-2,0-.17.02-.34,0-.5,14.34-9.33,27.24-20.82,37.5-34.5,5.21,46.01-14.99,70.48-59.25,80.5-1.11.76.2,5.2,2.25,4.5Z"/>
        <g>
          <path class="cls-22" d="M157.58,78.49c1.91.12,3.6.24,5.5.5,6.8.93,11.26,2.83,17,6.5,1.58,1.85,4.73,5.3,5.5,7.5.19.54.43,2.26.5,3,.02.16,0,.33,0,.5-21.58,16.78-49.57,19.02-71,1,0-.17-.02-.34,0-.5,1.85-18.13,29.12-19.35,42.5-18.5Z"/>
          <g>
            <path class="cls-10" d="M186.08,96.49c.03.66.04,1.34,0,2-.14-2.83-4.01,4.17-7,9-4.22.57-7.95,3.78-12.25,5-6.21,1.76-18.09,2.86-24.5,2-11.29-1.52-18.46-7.33-19.5-7.5-.7-.12-.75.49-1.25.5-1.79-2.77-3.64-5.65-6-8-.03-.38-.58-.5-.5-2,21.43,18.02,49.42,15.78,71-1Z"/>
            <path class="cls-25" d="M121.58,107.49c9.02,14.02,17.14,28.68,26.5,42.5-3.32-.61-7.09-4.07-9.5-6.5-8.49-8.54-22.06-32.25-23-44,2.36,2.35,4.21,5.23,6,8Z"/>
            <path class="cls-10" d="M179.08,107.49c-8.78,14.18-17.39,28.46-27.5,41.75l6-1.75c-3.59,2.56-4.76,3.37-9.5,2.5-9.36-13.82-17.48-28.48-26.5-42.5.5,0,.55-.62,1.25-.5,1.04.17,8.21,5.98,19.5,7.5,6.41.86,18.29-.24,24.5-2,4.3-1.22,8.03-4.43,12.25-5Z"/>
            <path class="cls-25" d="M186.08,98.49c-.64,11.96-15.62,36.21-24,45-1.11,1.17-3.19,3.07-4.5,4l-6,1.75c10.11-13.29,18.72-27.57,27.5-41.75,2.99-4.83,6.86-11.83,7-9Z"/>
          </g>
        </g>
      </g>
      <g>
        <path class="cls-19" d="M15.08,95.99c1.12,27.49,40.29,45.55,63,50.75-1.33-2.19-2.88-4.45-4-6.75,2.98-3.1,9.86,4.03,16.25,7,18.29,8.49,48.03,15.75,68,14.5,9.26-.58,24.96-4.49,34-7.5,7.56-2.52,18.44-8.54,19.5-8.5,1.19.04.69,1.01.75,1,2.75-.63,5.93-.76,8.75-1.5,20.04-5.27,54.75-22.55,55.75-46.5l6.5-2.5c3.41,11.04,6.09,18.71,7.5,30.5-29.41,29.31-95.02,32.47-106,65.5-5.9,5.98-34.48,61.49-38,62.5-12.26-17.9-36.8-69.37-50.75-80.5-15.68-12.51-72.88-28-95.25-49,1.16-10.95,3.67-21.02,7-31.5l7,2.5Z"/>
        <path class="cls-21" d="M147.08,254.49c-16.85-19.48-26.31-45.76-41.5-66.5-2.73-3.73-5.16-7.47-8.75-10.5-16.08-13.54-72.23-27.83-96.25-49,.09-1.24.38-2.35.5-3.5,22.37,21,79.57,36.49,95.25,49,13.95,11.13,38.49,62.6,50.75,80.5Z"/>
        <path class="cls-8" d="M151.83,164.99c-.65,7.67,3.6,8.97,3.25,9.75-.31.69-4.45-.52-6.25,5.75-2.04-3.63-3.52-3.8-7.5-3.5,3.17-7.3,1.48-9.31,1.75-9.75.87-1.44,3.2,3.61,8.75-2.25Z"/>
        <path class="cls-4" d="M147.83,220.99l4,1c7.92,14.25-16.6,8.95-4-1Z"/>
        <g>
          <path class="cls-8" d="M146.83,194.49c15.45-1.19,17.85,22.32,4,24-17.14,2.08-18.82-22.86-4-24Z"/>
          <g>
            <path class="cls-14" d="M141.08,201.99c-6.86,9.12,8.93,18.83,14,9.25,5.17-9.77-8.72-16.27-14-9.25,6.65-9.21,20.33.09,14.5,10.75-4.79,8.76-22.64.52-14.5-10.75Z"/>
            <path class="cls-1" d="M141.08,201.99c5.28-7.02,19.17-.52,14,9.25-5.07,9.58-20.86-.13-14-9.25Z"/>
            <path class="cls-26" d="M145.33,200.99c7.52-1.99,10.7,5.42,7,11-11.44,5.18-13.37-9.32-7-11Z"/>
          </g>
        </g>
      </g>
    </g>
  </g>
</svg>