<?xml version="1.0" encoding="UTF-8"?>
<svg id="Layer_2" data-name="Layer 2" xmlns="http://www.w3.org/2000/svg" viewBox="0 0 226.59 383.2">
  <defs>
    <style>
      .cls-1 {
        fill: #5b6e87;
      }

      .cls-1, .cls-2, .cls-3, .cls-4, .cls-5, .cls-6, .cls-7, .cls-8, .cls-9, .cls-10, .cls-11, .cls-12, .cls-13, .cls-14, .cls-15, .cls-16, .cls-17, .cls-18, .cls-19, .cls-20, .cls-21, .cls-22, .cls-23, .cls-24, .cls-25, .cls-26, .cls-27, .cls-28, .cls-29, .cls-30, .cls-31, .cls-32, .cls-33, .cls-34, .cls-35, .cls-36, .cls-37, .cls-38, .cls-39, .cls-40, .cls-41 {
        stroke-width: 0px;
      }

      .cls-2 {
        fill: #023b4b;
      }

      .cls-3 {
        fill: #68901e;
      }

      .cls-4 {
        fill: #bcc757;
      }

      .cls-5 {
        fill: #064a5d;
      }

      .cls-6 {
        fill: #cbd4e2;
      }

      .cls-7 {
        fill: #e0a32a;
      }

      .cls-8 {
        fill: #e6e9d4;
      }

      .cls-9 {
        fill: #449395;
      }

      .cls-10 {
        fill: #ce3240;
      }

      .cls-11 {
        fill: #3e6983;
      }

      .cls-12 {
        fill: #fdf4f3;
      }

      .cls-13 {
        fill: #52809e;
      }

      .cls-14 {
        fill: #18767c;
      }

      .cls-15 {
        fill: #1b5b71;
      }

      .cls-16 {
        fill: #f1f4f4;
      }

      .cls-17 {
        fill: #7ca0b8;
      }

      .cls-18 {
        fill: #cbcbcd;
      }

      .cls-19 {
        fill: #546d79;
      }

      .cls-20 {
        fill: #014d53;
      }

      .cls-21 {
        fill: #0a1b25;
      }

      .cls-22 {
        fill: #056269;
      }

      .cls-23 {
        fill: #6eb4b3;
      }

      .cls-24 {
        fill: #9c708c;
      }

      .cls-25 {
        fill: #3d5b78;
      }

      .cls-26 {
        fill: #2c4b68;
      }

      .cls-27 {
        fill: #0b1118;
      }

      .cls-28 {
        fill: #062a34;
      }

      .cls-29 {
        fill: #14354c;
      }

      .cls-30 {
        fill: #1a1114;
      }

      .cls-31 {
        fill: #fdf995;
      }

      .cls-32 {
        fill: #072c19;
      }

      .cls-33 {
        fill: #2f0e0e;
      }

      .cls-34 {
        fill: #f3df26;
      }

      .cls-35 {
        fill: #aac6da;
      }

      .cls-36 {
        fill: #0b2f30;
      }

      .cls-37 {
        fill: #b3b1b2;
      }

      .cls-38 {
        fill: #788ba0;
      }

      .cls-39 {
        fill: #eaeb24;
      }

      .cls-40 {
        fill: #071a1d;
      }

      .cls-41 {
        fill: #c4cc22;
      }
    </style>
  </defs>
  <g id="Layer_1-2" data-name="Layer 1">
    <g>
      <path class="cls-18" d="M122.91,365.2c-.04.16.04.34,0,.5-.49,2.23-1.34,3.45,0,7.5-4.08,0-8.34.5-12.5.5.16-2.09.97-5.76,1-7.5,6.04-3.53,6.17,8.13,5.5-6.5,3.45.49-.97,7.93,6,5.5Z"/>
      <path class="cls-37" d="M111.41,366.2c-.03,1.74-.84,5.41-1,7.5-2.33,0-4.8-.5-7-.5.47-2.46.2-4.54,0-7l7-8c.26,2.6,1.05,5.37,1,8Z"/>
      <path class="cls-16" d="M90.41,368.2v5c-.61,0-5.32,1.4-8,0,2.14-.9,4.1-1.88,4-4.5,1.61-1.07,2-.47,4-.5Z"/>
      <path class="cls-18" d="M141.91,368.7c.13,3.28.96,3.37,3.5,4.5-6.79,1.73-7.57-.5-8-.5v-4.5l4.5.5Z"/>
      <path class="cls-16" d="M129.91,338.2c.06.55-.83,10.11-1,11-1.15,5.92-4.75,10.91-6,16-6.97,2.43-2.55-5.01-6-5.5,0-.1-.34.61-.5-2-.18-3,.21-6.02-.5-9,2.67-.38,2.94-2.07,4-4,.81-1.48-.82-3.07,7.25-10,1.82.73,2.55,1.77,2.75,3.5Z"/>
      <path class="cls-21" d="M47.41,187.7c-.1-.01-1.57,0-2,0,.27-4.37,3.12-5.08,2,0Z"/>
      <path class="cls-16" d="M118.91,333.2c-.11.19-1.26,3.34-1.5,4-.52,1.44-1.49,2.18-1.5,4h-.5c-2.4-.13-3.34.65-5-1-.35-.35-3.6-8.39-4-9,1.28-.46,2.22-1.54,3.5-2,4.54-1.63,2.51.52,9-1.5,0,2.91-2.88.97,0,5.5Z"/>
      <g>
        <path class="cls-28" d="M22.41,225.2c4.85,1.82,11.91,5.95,17.75,5,2.74-.44,6.11-7.75,11.25.75-.48.68-2-.17-4-.25-6.12-.24-7.12.51-7.5.5-9.12-.21-7.21-4.79-17.75,3-7.4,5.47-16.59,16.81-18.25,26-2.94,16.31,5.24,22.02,23.25,32.5,10.89,6.34,26.78,11.81,27.75,13,.42.52-.53,1.19-.5,1.25.25.46.97.18,1,.25,1.41,3.25,4,15.64,6,17.75,1.36,1.43,4.74,1.48,6.5,2.25.85.37,1.63.69,2.5,1,3.27,1.16,6.07,3.66,5.5,1.25-2.56-6.03-4.31-12.34-6.5-18.5.85-2.02,6.55,8.97,7,10,3.21,7.33,1.47,11.86,7.25,14.25,1.35-.93.52-2.15.25-4l4.5-2c1.07,1.03,4.42,1.42,4.5,1.75.03.11-1.53.56-1.5,1,.05.71,4.33,11.66,5,13.25-.19,2.78-5.59-2.01-6-2.5-1.19-1.44-4.06-10.21-5-7.25-.5,4.94-.84,5.1,2.25,9.75.92-1.28,1.67-.94,1.75-1,2.12,5.69,4.17,10.9,5,17-2.45,5.15-3.59-1.65-4.5-.5-.83-6.31-6.01-20.01-7-21.25-1.31-1.65-5.94-2.3-7.75-3.75-2.19-.49-2.68,2-3.75,3.5-2.37.01,1.43-2.45.5-4-14.5-8.62-11.86-1.67-17-15-.81-2.1-3.61-11.27-4-11.75-.99-1.24-19.93-13.22-27.5,1.25-8.36,15.97,4.49,40.76,12,55.5-4.19.61-4.25,1.91-4.5,2-1.32.49-6.35,2.58-7,3l-.5-2.5c1.37-.97,3.05-1.5,4.5-2.5.23-.16,2.31-.13,2.5-1.75.15-1.29-8.65-17.24-10.5-23.75-3.86-13.59-5.92-37.65,13-39.75-7.82-3.16-27.66-15.5-31-22.5-7.99-16.75,11.22-48.68,17.5-52.25,2.71-1.54,1.24-.66,3,0Z"/>
        <path class="cls-37" d="M97.91,364.7c.46,2.67.96,5.34,1.5,8-.29,0,2.25.44-5,.5.77-2.32.64-5.99.5-8.5,1.43.1,1.29,2.29,3,0Z"/>
        <path class="cls-28" d="M208.41,227.2c3.68,2.76,12.16,17.64,14,22.25,12.12,30.38-3.76,35.87-27,50,19.63,6.87,14.43,31.58,9,46.75-1.94,5.43-5.49,12.26-8.5,17.25-.17,1.14,1.71,2.23,2.5,2.75v2.5c-5.45-2.08-1.68,2.04-5.25,3-1.23.33-1.66-.51-1.75-.5,8-3.43,1.86-5.77-6-5.5v-.5c1.62-.25,5.34.45,6.5-.25,1.29-.78,11.21-24.52,12-27.5,2.42-9.16,3.95-18.99-.5-27.75-2.7-5.31-6.88-8.4-13.25-7-.74.16-13.3,5.64-13.75,6.25-.37.5-2.88,9.17-4,11.75-3.8,8.78-3.35,5.92-14.75,12-.99.53-.68,1.46-.75,1.5-3.08,1.61-2.84,1.92-3,2-.45.22-7.22,1.56-9.5,3,.17-.65.98-3.79,1-4,4.45-4.42,9.02-9.28,12.5-14.5l.75-.5c.52,1.22-.27,3.1,1.75,3-.61,1.05-2.78,3.69-2.25,4,7.92-1,11.56-12.71,12.75-19.5.03-.16,1.15-2.29,1-3,13.09-3.05,49.48-20.74,51.5-34.75.76-5.31-.45-8.11-2-12.75-3.32-9.95-20.48-27.66-22.25-28-.75-.15-10.02,2.18-11.25,3.5-5.33-3.97-11.1.07-13.5-2,3.6-2.11,5.64-5.75,10.25-4,1.47.56,2.24,4.54,8.5,3.5.88-3.43,6.26-.29,11-5,2.21-.41,2.66.81,4.25,2Z"/>
        <path class="cls-20" d="M5.41,260.7c4.93,18.99,34.62,32.34,51.5,41-.54,1.08-.44,3.4-2,4-.97-1.19-16.86-6.66-27.75-13-18.01-10.48-26.19-16.19-23.25-32.5l1.5.5Z"/>
        <path class="cls-36" d="M116.41,357.7c.16,2.61.5,1.9.5,2,.67,14.63.54,2.97-5.5,6.5.05-2.63-.74-5.4-1-8-.02-.17.02-.34,0-.5h6Z"/>
        <path class="cls-20" d="M221.41,257.2c1.55,4.64,2.76,7.44,2,12.75-2.02,14.01-38.41,31.7-51.5,34.75-.03-.16-.74-.59-2-2.5,12.77-7.1,48.53-23.86,45.5-39.25l-1.5-.25c.75-1.77.86-3.85,2-5.5,2.14.51,4.37,3.77,5.5,0Z"/>
        <path class="cls-21" d="M174.41,230.7c2.4,2.07,8.17-1.97,13.5,2,1.71,1.27,6.31,6.5,8,8.5.62.74,2,1.9,2.5,2.5.09.11-.06,1.43,1,2.75,15.15,18.86,7.07,8.5,16.5,10.75-1.14,1.65-1.25,3.73-2,5.5-.35.84-.46,1.43-.5,1.5-6.74-5.21-6.42-3.39-14,1.5l1-1.25-1.5-.25c2-1.42,3.98-2.86,6-4.25-2.78-3.49-20.08-26.74-21.75-27.25-.98-.3-13.84,1.18-14.5,1.5-1.23.6-1.95,3.31-2.75,4.5-1.15-4.3,5.18-6.05,8.5-8Z"/>
        <g>
          <path class="cls-28" d="M96.41,345.2c.81,1.9,2.1,4.81,3,4.5,1.41,5.68,3.52,10.72,4,16.5.2,2.46.47,4.54,0,7-4.81,0-3.77-.5-4-.5-.54-2.66-1.04-5.33-1.5-8-1.76-10.19-3-11.92-8-21,.12-.2-.29-1.04.5-1,.41.49,5.81,5.28,6,2.5Z"/>
          <path class="cls-21" d="M94.41,361.2c.16,1.22.43,2.2.5,3.5.14,2.51.27,6.18-.5,8.5-1.35.01-2.67,0-4,0v-5c.2-2.54-.17-5-.5-7.5.91-1.15,2.05,5.65,4.5.5Z"/>
          <path class="cls-22" d="M88.41,308.7c4.57,5.4,14.6,17.35,18,22.5.4.61,3.65,8.65,4,9,.03.45-.46.5-.5,1-2.75.95-3.38-1.61-6.5-6.75-.42-.69.74-1.61.5-2-.72-1.16-14.85-15.98-17.75-20.75,2.53,8.98,8.62,17.71,11.25,26.5.43,1.44,1.07,7.74,2,11.5-.9.31-2.19-2.6-3-4.5-.67-1.59-4.95-12.54-5-13.25-.03-.44,1.53-.89,1.5-1-.08-.33-3.43-.72-4.5-1.75-.8-.77-5.99-14.82-10.75-18-.95.45,5.59,15.46,6.25,20,.27,1.85,1.1,3.07-.25,4-5.78-2.39-4.04-6.92-7.25-14.25-.45-1.03-6.15-12.02-7-10,2.19,6.16,3.94,12.47,6.5,18.5.57,2.41-2.23-.09-5.5-1.25-.83-15.63-14.01-23.65-9-28,3.68,2.32,20.44,11.72,23.25,11,1.5-.38,2.22-3.75,3.75-2.5Z"/>
          <path class="cls-28" d="M21.41,260.2c6.56,3.97,43.59,32,46.25,33,8.62,3.25,5.93-6.42,23.25,14.25,8.67,10.35,14.37,23.68,13,10.25,1.81-.08,7.41,1.13,6,3-.6-.26-5.1-3.12-5.5-2.25,1.68,3.71,2.47,7.85,5.5,10.75-1.28.46-2.22,1.54-3.5,2-3.4-5.15-13.43-17.1-18-22.5-3.16-3.74-7.65-12.04-12.75-13-3.85-.73-12.77-.01-14.25,4.5-5.01,4.35,8.17,12.37,9,28-.87-.31-1.65-.63-2.5-1-2.46-7.53-6.37-14.75-12.5-20-.03-.07-.75.21-1-.25-.03-.06.92-.73.5-1.25,1.56-.6,1.46-2.92,2-4,.97-1.96,2.44-3.98,4-5.5.46-.45,4.8-1.55,3.75-3l-45.25-31.5c.11-.05,1.71-1.27,2-1.5Z"/>
          <path class="cls-20" d="M67.91,327.2c-1.76-.77-5.14-.82-6.5-2.25-2-2.11-4.59-14.5-6-17.75,6.13,5.25,10.04,12.47,12.5,20Z"/>
          <path class="cls-28" d="M88.41,329.2l-4.5,2c-.66-4.54-7.2-19.55-6.25-20,4.76,3.18,9.95,17.23,10.75,18Z"/>
          <path class="cls-16" d="M97.91,364.7c-1.71,2.29-1.57.1-3,0-.07-1.3-.34-2.28-.5-3.5-.83-6.1-2.88-11.31-5-17,.03-.02.48-.47.5-.5,5,9.08,6.24,10.81,8,21Z"/>
          <path class="cls-20" d="M90.41,342.7c-.79-.04-.38.8-.5,1-.02.03-.47.48-.5.5-.08.06-.83-.28-1.75,1-3.09-4.65-2.75-4.81-2.25-9.75.94-2.96,3.81,5.81,5,7.25Z"/>
          <path class="cls-9" d="M88.41,308.7c-1.53-1.25-2.25,2.12-3.75,2.5-2.81.72-19.57-8.68-23.25-11,1.48-4.51,10.4-5.23,14.25-4.5,5.1.96,9.59,9.26,12.75,13Z"/>
          <path class="cls-21" d="M109.91,341.2c-.53,6.98,6.67,4.83,5.5,0h.5c-.01,2.91,1.25,3.94,4,3.5-1.06,1.93-1.33,3.62-4,4-.35.05-5.46-1.05-7-.5-.3-.69-6.9-10.02-8.25-12.5l-3.25,2.5c-2.63-8.79-8.72-17.52-11.25-26.5,2.9,4.77,17.03,19.59,17.75,20.75.24.39-.92,1.31-.5,2,3.12,5.14,3.75,7.7,6.5,6.75Z"/>
        </g>
        <path class="cls-24" d="M115.41,341.2c1.17,4.83-6.03,6.98-5.5,0,.04-.5.53-.55.5-1,1.66,1.65,2.6.87,5,1Z"/>
        <path class="cls-14" d="M9.41,260.7c1.27,1.78-.65,2.78,3,2.5,14.7,12.41,33.38,20.58,48.5,33-1.56,1.52-3.03,3.54-4,5.5-16.88-8.66-46.57-22.01-51.5-41l2.25-2.5c.83,2.43,1.66,2.38,1.75,2.5Z"/>
        <path class="cls-9" d="M19.41,261.7l45.25,31.5c1.05,1.45-3.29,2.55-3.75,3-15.12-12.42-33.8-20.59-48.5-33,.45-.04,6.68-1.35,7-1.5Z"/>
        <path class="cls-22" d="M109.91,320.7c.62.27,3.01,2.03,3.25,2,1.33-.15,3.16-7.56,8.75,3.25-2.68,4.43-2.5,1.59-3,1.75-6.49,2.02-4.46-.13-9,1.5-3.03-2.9-3.82-7.04-5.5-10.75.4-.87,4.9,1.99,5.5,2.25Z"/>
        <path class="cls-22" d="M115.91,348.7c.71,2.98.32,6,.5,9h-6c-.43-3.66.3-5.4-1.5-9.5,1.54-.55,6.65.55,7,.5Z"/>
        <g>
          <g>
            <path class="cls-21" d="M185.41,365.2v.5c-.52.02-4.75.44-5,.5.29-1.17-.49-1.67-1-2.5-10.41-16.89-28.05-6.86-32,0-.7,1.22-2.92,3.95-1.25,5,21.13,4.85,36.77,11.36,59,6,2.13-.91-4.23-5.04-6.75-6v-2.5c.07.04.44-.1,1.5.5.8.45,5.06,2.4,5.5,2.5,2.44,3.3,4.78,4.63,4,9.25-2.52,3.73-6.68,1.84-6.5,3.75-6.41.52-13.06.71-19.5,1,.38-.83-1.36-1.42-1.75-1.5-7.23-1.45-30.89-6.12-36.25-8.5-2.54-1.13-3.37-1.22-3.5-4.5-.4-10.55,13.73-15.08,22-16.75-3.83-4.88-7.6-9.98-10-15.75.16-.08-.08-.39,3-2,2.73,1.89,10.47,12.88,11.75,13.5,4.82,2.32,16.72-3.59,16.75,17.5Z"/>
            <path class="cls-20" d="M179.41,363.7c.51.83,1.29,1.33,1,2.5-3.4.77-3.59,4.34-1.75,5,4.22-.24,8.55.32,12.75,0,.09,0,.52.83,1.75.5,3.57-.96-.2-5.08,5.25-3,2.52.96,8.88,5.09,6.75,6-22.23,5.36-37.87-1.15-59-6-1.67-1.05.55-3.78,1.25-5,11.08-2.31,21.21.25,32,0Z"/>
            <path class="cls-22" d="M179.41,363.7c-10.79.25-20.92-2.31-32,0,3.95-6.86,21.59-16.89,32,0Z"/>
            <path class="cls-39" d="M191.41,371.2c-4.2.32-8.53-.24-12.75,0-1.84-.66-1.65-4.23,1.75-5,.25-.06,4.48-.48,5-.5,7.86-.27,14,2.07,6,5.5Z"/>
          </g>
          <g>
            <path class="cls-20" d="M185.41,365.2c-.03-21.09-11.93-15.18-16.75-17.5-1.28-.62-9.02-11.61-11.75-13.5.07-.04-.24-.97.75-1.5,11.4-6.08,10.95-3.22,14.75-12l1.25,1.5c1.31-2.74,1.59-2.86,3.75-4.5-10.47,14.12,4.13,26.27,11.5,18.75,4.63-4.72,4.22-16.08-2.5-20.75,2.26.97,3.51,2.98,3.75,3,.8.06,11.46-8.04,13.25-9,4.45,8.76,2.92,18.59.5,27.75-.79,2.98-10.71,26.72-12,27.5-1.16.7-4.88,0-6.5.25Z"/>
            <g>
              <path class="cls-22" d="M203.41,309.7c-1.79.96-12.45,9.06-13.25,9-.24-.02-1.49-2.03-3.75-3-3.63-1.56-5.94-.33-9,2-2.16,1.64-2.44,1.76-3.75,4.5l-1.25-1.5c1.12-2.58,3.63-11.25,4-11.75.45-.61,13.01-6.09,13.75-6.25,6.37-1.4,10.55,1.69,13.25,7Z"/>
              <path class="cls-16" d="M187.66,304.7l1.75.25c1.56,10.18-5.8.53-1.75-.25Z"/>
            </g>
            <g>
              <path class="cls-41" d="M186.41,315.7c6.72,4.67,7.13,16.03,2.5,20.75-7.37,7.52-21.97-4.63-11.5-18.75,3.06-2.33,5.37-3.56,9-2Z"/>
              <path class="cls-3" d="M182.66,316.7c9.11,2.39,9.77,15.04,2.5,20-9.01,1.96-15.44-13.14-2.5-20Z"/>
            </g>
          </g>
        </g>
        <path class="cls-14" d="M169.91,302.2c-.17-.25-3.23-3.62-4-4.5,10.19-5.65,42.81-25.1,47.5-33.5.04-.07.15-.66.5-1.5l1.5.25c3.03,15.39-32.73,32.15-45.5,39.25Z"/>
        <path class="cls-41" d="M198.41,243.7c-.5-.6-1.88-1.76-2.5-2.5,2.55-9.97,12.93,1.31,2.5,2.5Z"/>
        <path class="cls-9" d="M213.41,264.2c-4.69,8.4-37.31,27.85-47.5,33.5-1.01-1.17-3.14-1.64-4-3.75,11.45-8.4,25.93-20.78,37.5-28.25,7.58-4.89,7.26-6.71,14-1.5Z"/>
        <g>
          <g>
            <path class="cls-21" d="M71.91,335.2c.93,1.55-2.87,4.01-.5,4-2.91,4.1-5.17,9.05-8,13.25,9.5,1.79,20.67,5.66,23,16.25.1,2.62-1.86,3.6-4,4.5-4.89,2.06-29.96,6.72-37.5,10-6.91-.28-13.59-.5-20.5-1-7.81-2-11.15-6.14-4.5-12.5.43-.41,2.54-1.32,3.5-2l.5,2.5c-.73.47-2.66,1.82-3,2.5l-.25,2c22.43,5.41,40.44-.25,62-6,1.48-1.54-3.02-6.43-4.25-7.5-3.49-3.03-12.62-6.44-17-6.5-6.1-.08-9.38,4.36-13,8.5-.56.65-1.76.99-2,2-1.56-.42-2.94.04-4.5,0-2.73-18.11,13.76-15.04,16.75-16.5,2.73-1.33,8.07-13.3,8.75-13.75,1.34-.89,3.13.31,4.5.25Z"/>
            <path class="cls-20" d="M20.91,372.7c3.16,1.09,8.33-3.92,12.5-4.5-.3,5.05,9.9,2.34,16.75,3l.25-1.5c1.55-1.65-2.39-4.06-4-4.5.24-1.01,1.44-1.35,2-2,1.38.96,4.75-.48,5-.5,8.27-.67,16.75-.21,25-1.5,1.23,1.07,5.73,5.96,4.25,7.5-21.56,5.75-39.57,11.41-62,6l.25-2Z"/>
            <path class="cls-22" d="M78.41,361.2c-8.25,1.29-16.73.83-25,1.5.62-2.76,5.46-3.72,8-8,4.38.06,13.51,3.47,17,6.5Z"/>
            <path class="cls-22" d="M61.41,354.7c-2.54,4.28-7.38,5.24-8,8-.25.02-3.62,1.46-5,.5,3.62-4.14,6.9-8.58,13-8.5Z"/>
            <path class="cls-14" d="M33.41,367.7v.5c-4.17.58-9.34,5.59-12.5,4.5.34-.68,2.27-2.03,3-2.5.65-.42,5.68-2.51,7-3,1.43-.9,1.57-.66,2.5.5Z"/>
            <path class="cls-32" d="M46.41,365.2c1.61.44,5.55,2.85,4,4.5-.3-5.28-16.23-4.16-17-2-.93-1.16-1.07-1.4-2.5-.5.25-.09.31-1.39,4.5-2,.32-.05,5.62-.02,6.5,0,1.56.04,2.94-.42,4.5,0Z"/>
            <path class="cls-39" d="M50.41,369.7l-.25,1.5c-6.85-.66-17.05,2.05-16.75-3v-.5c.77-2.16,16.7-3.28,17,2Z"/>
          </g>
          <g>
            <path class="cls-20" d="M34.91,317.7c-9.03,25.86,25.55,28.99,15.5,1.5,1.64,1.66.38,2.93,4.5,1,5.14,13.33,2.5,6.38,17,15-1.37.06-3.16-1.14-4.5-.25-.68.45-6.02,12.42-8.75,13.75-2.99,1.46-19.48-1.61-16.75,16.5-.88-.02-6.18-.05-6.5,0-7.51-14.74-20.36-39.53-12-55.5,2.29,2.26,8.63,7.89,11.5,8Z"/>
            <g>
              <path class="cls-22" d="M54.91,320.2c-4.12,1.93-2.86.66-4.5-1-1.21-1.22-3.44-4.9-4.25-5-.58-.08-7.62,3.64-11.25,3.5-2.87-.11-9.21-5.74-11.5-8,7.57-14.47,26.51-2.49,27.5-1.25.39.48,3.19,9.65,4,11.75Z"/>
              <path class="cls-8" d="M39.16,304.7c3.62,4.29,2.77,7.02-1.75,2.25l1.75-2.25Z"/>
            </g>
            <g>
              <path class="cls-41" d="M50.41,319.2c10.05,27.49-24.53,24.36-15.5-1.5,3.63.14,10.67-3.58,11.25-3.5.81.1,3.04,3.78,4.25,5Z"/>
              <path class="cls-3" d="M36.91,331.7c4.33.62.17-4.81-2-5.5-.81-9.91,2.53-7.31,10.25-9,13.65,10.03-.28,28.83-8.25,14.5Z"/>
              <path class="cls-3" d="M36.91,331.7c-.49-.88-1.94-4.78-2-5.5,2.17.69,6.33,6.12,2,5.5Z"/>
            </g>
          </g>
        </g>
        <g>
          <path class="cls-21" d="M137.41,368.2v4.5c-.22,0,1.92.51-3.5.5-.24-2.19-.7-4.26-.5-6.5,1-11.44,6.2-15.45,9.5-23-1.19,8.38-6.18,15.84-5.5,24.5Z"/>
          <path class="cls-16" d="M133.41,366.7c-.2,2.24.26,4.31.5,6.5-2.32,0-4.69,0-7,0,.45-.56.35-1.04.5-1.5,1.53-4.79,2.21-10.16,4-15.25,1.65-4.69,4.35-9,6-13.75-.95,7.65-4,16.05-6.5,23.75l2.5.25Z"/>
          <path class="cls-21" d="M127.41,371.7c-.15.46-.05.94-.5,1.5-1.35,0-2.66,0-4,0-1.34-4.05-.49-5.27,0-7.5,7.96-.56,3.48.78,4.5,6Z"/>
          <path class="cls-28" d="M137.91,339.7c.7.99-.19,2.09-.5,3-1.65,4.75-4.35,9.06-6,13.75-1.79,5.09-2.47,10.46-4,15.25-1.02-5.22,3.46-6.56-4.5-6,.04-.16-.04-.34,0-.5,1.25-5.09,4.85-10.08,6-16,1.34.19,1.44-1.01,2-2l1.5.75c2.39-7.32,5.19-7.85,5.5-8.25Z"/>
          <path class="cls-20" d="M145.41,335.2c-.02.21-.83,3.35-1,4-.39,1.5-.87,3.07-1.5,4.5-3.3,7.55-8.5,11.56-9.5,23l-2.5-.25c2.5-7.7,5.55-16.1,6.5-23.75.31-.91,1.2-2.01.5-3,2.26-2.93,4.72-5.73,6.5-9,.54.33,1.02,4.27,1,4.5Z"/>
          <path class="cls-28" d="M199.41,265.7c-11.57,7.47-26.05,19.85-37.5,28.25.86,2.11,2.99,2.58,4,3.75.77.88,3.83,4.25,4,4.5,1.26,1.91,1.97,2.34,2,2.5.15.71-.97,2.84-1,3-3.42,5.16-7.4,10.15-10.5,15.5-2.02.1-1.23-1.78-1.75-3l-.75.5c.19-.29-.82-.76-.5-1.25,1.6-2.45,9.94-14.08,10-16,.05-1.64-1.98-2.57-2.5-3.25-3.47-4.5-6.69-5.87-14.75-4.5-6.57,1.12-9.69,8.71-13.25,13.5-.62.83-1.37,1.63-2,2.5l-1.5-1c18.24-25.6,13.64-13.62,25.25-17,1.4-.41,19.72-15.61,23-18,5.58-4.06,11.64-7.53,17.25-11.5l1.5.25-1,1.25Z"/>
          <path class="cls-22" d="M160.41,323.2c3.1-5.35,7.08-10.34,10.5-15.5-1.19,6.79-4.83,18.5-12.75,19.5-.53-.31,1.64-2.95,2.25-4Z"/>
          <path class="cls-28" d="M141.41,312.7c-2.5,6.29-5.93,12.47-8.5,18.75-1.33,3.24-1.93,8.24-3,6.75-.2-1.73-.93-2.77-2.75-3.5-8.07,6.93-6.44,8.52-7.25,10-2.75.44-4.01-.59-4-3.5,0-1.82.98-2.56,1.5-4l2.75,3c2.37-5.01,6.39-7.52,3.25-12,.83-1.23,1.44-1.41,1.5-1.5,3.98,4.3,11.72-10.48,15.5-15.5,2.7-3.58,2.78-2.99,1,1.5Z"/>
          <path class="cls-21" d="M145.91,328.2c-.45.92-1.03,1.64-1.5,2.5-1.78,3.27-4.24,6.07-6.5,9-.31.4-3.11.93-5.5,8.25l-1.5-.75c3.97-6.94,1.27-6.47,1.5-7.25.36-1.2,3.18-9.58,3.5-10,1.17-1.51,1.43-.07,2.5-.25,1.34-.23,3.71.11,7.5-1.5Z"/>
          <path class="cls-9" d="M164.91,300.2c-8.75,4.3-19.56,15.49-20.75,15-.39-.16.44-1.95-2.75-2.5,1.78-4.49,1.7-5.08-1-1.5.04-1.61-1.78-2.92-3.5-2,3.56-4.79,6.68-12.38,13.25-13.5,8.06-1.37,11.28,0,14.75,4.5Z"/>
          <path class="cls-28" d="M145.91,328.2c-3.79,1.61-6.16,1.27-7.5,1.5,2.83-7.11,8.22-12.88,13.25-18.5.81.38-5.25,15.98-5.75,17Z"/>
          <g>
            <path class="cls-22" d="M157.91,320.7c-3.48,5.22-8.05,10.08-12.5,14.5.02-.23-.46-4.17-1-4.5.47-.86,1.05-1.58,1.5-2.5.5-1.02,6.56-16.62,5.75-17-5.03,5.62-10.42,11.39-13.25,18.5-1.07.18-1.33-1.26-2.5.25-.32.42-3.14,8.8-3.5,10-.23.78,2.47.31-1.5,7.25-.56.99-.66,2.19-2,2,.17-.89,1.06-10.45,1-11,1.07,1.49,1.67-3.51,3-6.75,2.57-6.28,6-12.46,8.5-18.75,3.19.55,2.36,2.34,2.75,2.5,1.19.49,12-10.7,20.75-15,.52.68,2.55,1.61,2.5,3.25-.06,1.92-8.4,13.55-10,16-.32.49.69.96.5,1.25Z"/>
            <path class="cls-20" d="M153.16,312.2c-2.71,12.34,6.42-1.46,5.75,3.25-11.62,15.1-14.18,15.22-5.75-3.25Z"/>
          </g>
          <path class="cls-14" d="M140.41,311.2c-3.78,5.02-11.52,19.8-15.5,15.5,3.37-4.99,6.45-10.13,10-15,.63-.87,1.38-1.67,2-2.5,1.72-.92,3.54.39,3.5,2Z"/>
          <path class="cls-20" d="M117.41,337.2c.24-.66,1.39-3.81,1.5-4,.91-1.6,3.71-3.83,4.5-5,3.14,4.48-.88,6.99-3.25,12l-2.75-3Z"/>
        </g>
        <g>
          <path class="cls-27" d="M80.91,235.2c.67.28,1.63,1.1,2.5,1,1.02,1.73,6.39,11.44,2.25,9.5-6.62-6.13-12.74-11.8-7.5,2,2.41-.3,12.87-.76,13.5-1,1.53-.57,1.17-2.94,1.75-4,.69.66,4.4,3.73,4.5,4.25.2,1.03-1.77,4.6-2,5.75l-13,3.75c.02.71,11.1,2.85,12.5,3.25,7.44,2.15,9.24,2.82-.25,2.5-2.48,3.63,13.86-.97.25,4.75,3.12,2.1,6.53.61,9,3-11.44,3.8-13.93,2.03-1.5,4.5,1.02,2.1-16.66,6.08-2.75,5.25,1.9.85,1.07,1.66,1.25,2-2.95-1.42-4.33,1.01-7,1.5-.83-1.55-19.29-21.58-23-26.75-6.74-9.39-11.7-21.05-12.75-21.75-.75-.5-16.18-4.08-17.25-.5.07-.08-.68-1.13.75-2,2.34-1.42,4.91.26,5.25-1.5,2,.08,3.52.93,4,.25-5.14-8.5-8.51-1.19-11.25-.75-5.84.95-12.9-3.18-17.75-5-.76-3.09-.3-2.04,1.5-4,9.56,2.81,20.01-1.36,24.25-1,1.93.16,27.53,12.78,32.75,15Z"/>
          <path class="cls-22" d="M39.91,231.2c-3.59,3.7-7.29,7.48-10.5,11.5-2.65-13.98-13.39,1.02-1.5,2-1.52,1.86-8.96,13.24-9.75,13.5-3.5,1.16-11.21-3.1-8.75,2.5-.09-.12-.92-.07-1.75-2.5l-2.25,2.5-1.5-.5c1.66-9.19,10.85-20.53,18.25-26,10.54-7.79,8.63-3.21,17.75-3Z"/>
          <path class="cls-21" d="M47.41,230.7c-.34,1.76-2.91.08-5.25,1.5-1.43.87-.68,1.92-.75,2-5.16,6.1-18.72,24.97-20,26-.29.23-1.89,1.45-2,1.5-.32.15-6.55,1.46-7,1.5-3.65.28-1.73-.72-3-2.5-2.46-5.6,5.25-1.34,8.75-2.5.79-.26,8.23-11.64,9.75-13.5.51-.63.99-1.36,1.5-2,3.21-4.02,6.91-7.8,10.5-11.5.38,0,1.38-.74,7.5-.5Z"/>
          <path class="cls-21" d="M44.41,187.7c-5.86.24-9.75,1.82-15,4-22.07,9.17-19.1,25.5-5.5,29.5-1.8,1.96-2.26.91-1.5,4-1.76-.66-.29-1.54-3,0,2.01-3.57-9.42-6.72-8.5-17.25.97-11.11,23.21-22.11,33.25-23.25l.25,3Z"/>
          <path class="cls-27" d="M212.41,201.7c8.59,13.59-6.5,20.91-6.5,22.25,0,.42,2.65,1.85,2.5,3.25-1.59-1.19-2.04-2.41-4.25-2-4.74,4.71-10.12,1.57-11,5-6.26,1.04-7.03-2.94-8.5-3.5-4.61-1.75-6.65,1.89-10.25,4-3.32,1.95-9.65,3.7-8.5,8-4.55,6.71-7.95,13.89-13.5,21.25-4.61,6.11-19.79,21.64-20.5,23-.86,1.64-8.05,29.62-11,35.25-.03-.06-.87.19-1-.25,1.56-5.28,10.7-30.32,11-32,.97-5.38-4.45-.99-5.5-5.25,1.4-5.57,3.55-10.75,2-14,8.19-2.34,4.26-3.07-1.5-5,2.22-1.37,17.97-4.06,17.5-6.25-1.88-2.02-11.71-2.91-12.25-3.25-.26-.16-.22-2.4-3.75-4.75,5.68-2.3,7.38-7.6,11.25-11.75.49.12.13,1.4.25,1.5l-4.5,8.75c.37,1.34,3.74.49,5.5.75,1.5.22,9.77,1.78,10.5.75l.25-7.75c-.9-.69-8.74,3.96-9.75,5,.23-2.51-.64-3.96,0-6.5.35-1.37,2.1-3.18,3-4,.24-.22,3.7-2.49,4.5-2.5-1.15,1.11-2.87,2.17-2.25,3.5,7.06-2.33,24.05-12.55,27.25-13.5,11.35-3.39,21.67,3.67,32.25-2.5,7.29-4.25,8.46-11.04,4.25-18l2.5.5Z"/>
          <path class="cls-22" d="M221.41,257.2c-1.13,3.77-3.36.51-5.5,0-9.43-2.25-1.35,8.11-16.5-10.75-1.06-1.32-.91-2.64-1-2.75,10.43-1.19.05-12.47-2.5-2.5-1.69-2-6.29-7.23-8-8.5,1.23-1.32,10.5-3.65,11.25-3.5,1.77.34,18.93,18.05,22.25,28Z"/>
          <path class="cls-27" d="M143.91,163.7c.63-.03,2.05.26,2.5.5,5.64,3.01,11.09,6.07,16.5,9.5l.5,3.5c-2.16,5.58-2.2,6.54-5.5,12-8.99,1.66-2.15-.94-5-2.5,1.26-2.48,2.36-4.45,2.25-7.5-4.81,7.91-14.77,14-20.25,20.5-4.11,4.87-1.8,4.76-.5,6,3.81,3.63,1.44.92,3-1,.02-.03.18-.13.5-.5.55-.65,1.48-.92,2-1.5,3.17.98.64,3.71.5,6-3.7,3.43-7.7,6.67-11,10.5-.91-.21-1.21-.44-1.5-.5,1.11-6.9,3.11-13.05,4.75-19-10.04,2.13-10.18,10.78-19,17.5-2.93.3-18.71-25.36-20.25-16-1.46-3.19-.9-1.08-1.5-1.5-8.61-6.07-19.81-22.05-20.5-20.75,1.39,10.15,9.71,18.38,17.25,24.75.27-1.26,1.11-.94,1.75-1.5-.04.74-.36,1.25-.5,2-.61,3.31,5.61,5.08,4,1.5h.5c.59,1.66,3.11,10.76,4.25,11,.12.03,1.25-1.15,2.25-1-.09.55.19,1.1.5,1.5-1.74.03-3.86.51-5.5,1-5.06-5.87-11.19-10.63-16.5-16.25-1.95-2.07-5.3-9.43-6.75-4.25-2.48-2.86-3.59-6.65-5.25-10,4.23-3.08-1.22-7.2-4-9.5-.31-1.12.94-1.97-1.5-4,5.52-3.8,10.55-6.49,16.5-9.5,1.14-.58,1.94-1.33,3-2,9.94,12.99,18.2,27.22,31.75,37,10.79-7.94,23.92-24.6,30.75-36Z"/>
          <path class="cls-21" d="M120.91,318.2c3.75,8.32,4,4.43,12.5-7.5l1.5,1c-3.55,4.87-6.63,10.01-10,15-.06.09-.67.27-1.5,1.5-.79,1.17-3.59,3.4-4.5,5-2.88-4.53,0-2.59,0-5.5.5-.16.32,2.68,3-1.75-5.59-10.81-7.42-3.4-8.75-3.25-.24.03-2.63-1.73-3.25-2,1.41-1.87-4.19-3.08-6-3-.21-2.03-8.66-32.92-9.5-34.5,2.67-.49,4.05-2.92,7-1.5,1.84,3.45,4.96,27.8,8.5,31.25,1.58,1.54,5.63.42,7.75.75,2.62-10.62,4.09-21.65,6.75-32.25.11-.45.98-.69,1-.75,1.05,4.26,6.47-.13,5.5,5.25-.3,1.68-9.44,26.72-11,32,.13.44.97.19,1,.25Z"/>
          <path class="cls-5" d="M29.91,193.2c-1.89.45-2.85,1.16-4.5,2-2.82,1.43-2.67,1.16-5,3.5-9.57,9.6-2.76,19.54,8.75,18.5,2.03-.18,8.01-2.94,8.5-3,4.77-.58,10.13,2.53,15.25,2,3.02-.31,2.58-1.61,2.75-1.5,1.02.63-1.01,2.17,1.25,2,1.54-.11,2.61-1.03,2.75-1,1.41.28,18.3,17.14,21.75,18.75l-.5.75c-5.22-2.22-30.82-14.84-32.75-15-4.24-.36-14.69,3.81-24.25,1-13.6-4-16.57-20.33,5.5-29.5l.5,1.5Z"/>
          <path class="cls-5" d="M93.41,242.7c-.58,1.06-.22,3.43-1.75,4-.63.24-11.09.7-13.5,1-5.24-13.8.88-8.13,7.5-2,4.14,1.94-1.23-7.77-2.25-9.5-.04-.07.08-.58-.5-1.5l1.25-1.5c2.3,4.03,6.05,6.44,9.25,9.5Z"/>
          <path class="cls-28" d="M64.91,206.7c-2.28,2.43.43,14.48,3.5,8.5h.5c-.16.16-1.96,3.12-2.5,3.75,4.42,4.07,5.97,8.16,6,3.25,2.75,3.41,8.5,9.33,10.5,12.5.58.92.46,1.43.5,1.5-.87.1-1.83-.72-2.5-1l.5-.75c-3.45-1.61-20.34-18.47-21.75-18.75-.14-.03-1.21.89-2.75,1,2.33-4.95.98-3.82-9-7-.59-.56-3.91-.77,0-2.5,1.36.48,6.04,2.25,6.5,2.5,7.7,4.17,12.32,13.97,8.5.5,1.01-2.29.12-6.09,2-3.5Z"/>
          <path class="cls-29" d="M95.91,252.7c-.07.34,0,4.66-.5,7-1.4-.4-12.48-2.54-12.5-3.25l13-3.75Z"/>
          <path class="cls-4" d="M29.41,242.7c-.51.64-.99,1.37-1.5,2-11.89-.98-1.15-15.98,1.5-2Z"/>
          <path class="cls-29" d="M168.91,205.7c.72,1.49,2.06,3.63,3,5-7.54,1.88-7.41-2.39-12.5,4-1.98,2.49-.91,1.89-1,2-6.4,7.63-14.67,14.09-14.5,17.5-.9.82-2.65,2.63-3,4-.36-.04-1.91-.93-2-1-.12-.1.24-1.38-.25-1.5-3.87,4.15-5.57,9.45-11.25,11.75,3.53,2.35,3.49,4.59,3.75,4.75.54.34,10.37,1.23,12.25,3.25.47,2.19-15.28,4.88-17.5,6.25-.7.43-.18,1.63-2,2.5h-.5c1.12-2.86-7.39-2.22-7.75-2.5-.52-.39-.16-2.27-.25-3,1.14-5.43.8-11.01,1-16.5,3.47,3.68,2.79,1.05,3,1,.9-.24,2.18-.63,3-1,1.01-.45,7.87-4.22,8.25-4.5,4.57-3.43,33.74-33.36,41.5-41-.02,3.92-4.18,7.78-4.25,8.25-.15,1.1.97.69,1,.75Z"/>
          <path class="cls-20" d="M209.91,201.2c4.21,6.96,3.04,13.75-4.25,18-10.58,6.17-20.9-.89-32.25,2.5-1.75-1.23-.62-5.12,0-6,.37-.51.94-.79,1.5-1,.26-.1.07.44,1.5,0,.39-.12.55.66,1.25.5,1.23-.28,3.86-2.07,5-2,.46.03,5.83,3.11,7.5,3.5,13.58,3.18,28.13-4.38,15.75-17.5-1.01-1.07-10.11-7.37-4.25-5.5,3.5,2.85,5.76,3.39,8.25,7.5Z"/>
          <path class="cls-5" d="M169.41,215.7c1.32-.11,2.68.07,4,0-.62.88-1.75,4.77,0,6-3.2.95-20.19,11.17-27.25,13.5-.62-1.33,1.1-2.39,2.25-3.5,4.75-4.6,12.89-9.62,16-15,1.58-.16,3.35-.87,5-1Z"/>
          <path class="cls-5" d="M164.41,216.7c-3.11,5.38-11.25,10.4-16,15-.8,0-4.26,2.28-4.5,2.5-.17-3.41,8.1-9.87,14.5-17.5,1.86-.28,4.81.12,6,0Z"/>
          <path class="cls-2" d="M139.91,246.7c.49-.76.34-1.32,1-2,1.01-1.04,8.85-5.69,9.75-5l-.25,7.75c-.73,1.03-9-.53-10.5-.75Z"/>
          <path class="cls-29" d="M127.41,266.7c-5.64,1.61-4.31.23-9.5-1,1.11-1.62,3.07-.1,6-1.5,1.82-.87,1.3-2.07,2-2.5,5.76,1.93,9.69,2.66,1.5,5Z"/>
          <path class="cls-5" d="M140.91,238.2c-.64,2.54.23,3.99,0,6.5-.66.68-.51,1.24-1,2-1.76-.26-5.13.59-5.5-.75l4.5-8.75c.09.07,1.64.96,2,1Z"/>
          <path class="cls-21" d="M122.91,219.2c-1.26.39-2.4,1.3-3.5,2-.12.08-.94-.29-2.5,1.5-.06.06-1.24-.09-1.5.75-.52,1.68-.26,33.05,0,35.25.09.73-.27,2.61.25,3,.36.28,8.87-.36,7.75,2.5l-7.75-1.5c-.53.44-.15,1.84-.25,2.5-.1.62.05,1.35,0,2-.05.66.07,1.34,0,2-.73,7.19-.98,5.43-1,5.75-.25,4.99.83,31.93,0,33.5l-3.75.25c-.69-9.64-.39-20.08-.25-30,.11-7.99,2.03-51.83,1.5-54.5-.63-3.15-8.32-4.21-10.5-7-.31-.4-.59-.95-.5-1.5,7.87,1.2,14.11,4.01,22.75,1l-.75,2.5Z"/>
          <path class="cls-20" d="M170.41,181.2c-.35,4.48-3.31,9.4-6,13-6.03,8.07-22.09,19.5-30,27-2.12-.32-3.3-1.61-5-2,3.3-3.83,7.3-7.07,11-10.5,7.13-6.62,12.29-10.9,17.5-19.5,3.3-5.46,3.34-6.42,5.5-12,.25-.65-.56-2.16.75-2,2.25,1.91,4.71,3.32,6.25,6Z"/>
          <path class="cls-5" d="M63.41,178.2c1.18,4.3,2.14,5.76,4,9.5,1.66,3.35,2.77,7.14,5.25,10,1.45-5.18,4.8,2.18,6.75,4.25,5.31,5.62,11.44,10.38,16.5,16.25-.16.05,1.3.22-2.5,1-14.14-5.64-32.48-22.31-36.5-37-.18-.66-.43-1.32-.5-2,1.81-1.34,4.44-3.97,4.75-4,.93-.09.77.78,2.25,2Z"/>
          <path class="cls-28" d="M127.91,218.7c-3.05-.61-2.3-.33-5,.5l.75-2.5c-8.64,3.01-14.88.2-22.75-1-1-.15-2.13,1.03-2.25,1-1.14-.24-3.66-9.34-4.25-11-.42-1.18-.61-3.65-1-4.5,1.54-9.36,17.32,16.3,20.25,16,8.82-6.72,8.96-15.37,19-17.5-1.64,5.95-3.64,12.1-4.75,19Z"/>
          <path class="cls-5" d="M101.41,217.2c2.18,2.79,9.87,3.85,10.5,7l-3.75,3.5c-.97-2.87-3.15-4.71-2.25,0-.92.02-.3,1.21-.5,2-3.89-2.6-10.24-3.88-11.5-4.5-2.15-1.06-4.41-2.79-5.5-5,1.71-.31,3.31-.65,5-1,3.8-.78,2.34-.95,2.5-1,1.64-.49,3.76-.97,5.5-1Z"/>
          <path class="cls-28" d="M91.91,199.7c.02,1.23-.66,1.77-1.5,2.5-.64.56-1.48.24-1.75,1.5-7.54-6.37-15.86-14.6-17.25-24.75.69-1.3,11.89,14.68,20.5,20.75Z"/>
          <path class="cls-40" d="M157.91,189.2c-5.21,8.6-10.37,12.88-17.5,19.5.14-2.29,2.67-5.02-.5-6,3.52-3.96,10.87-11.8,13-16,2.85,1.56-3.99,4.16,5,2.5Z"/>
          <path class="cls-28" d="M152.91,186.7c-2.13,4.2-9.48,12.04-13,16-.52.58-1.45.85-2,1.5l-3-4.5c5.48-6.5,15.44-12.59,20.25-20.5.11,3.05-.99,5.02-2.25,7.5Z"/>
          <path class="cls-5" d="M127.91,218.7c.29.06.59.29,1.5.5,1.7.39,2.88,1.68,5,2,1.05.16,2.38-.09,3.5,0,.34,2.31-3.51,3.72-5,5h-12.5c-.38-1.64-.72-3.34-1-5,1.1-.7,2.24-1.61,3.5-2,2.7-.83,1.95-1.11,5-.5Z"/>
          <path class="cls-40" d="M67.41,187.7c-1.86-3.74-2.82-5.2-4-9.5,2.78,2.3,8.23,6.42,4,9.5Z"/>
          <path class="cls-16" d="M134.91,199.7l3,4.5c-.32.37-.48.47-.5.5l-3,1c-1.3-1.24-3.61-1.13.5-6Z"/>
          <path class="cls-16" d="M93.41,201.2c.39.85.58,3.32,1,4.5h-.5l-4-1.5c.14-.75.46-1.26.5-2,.84-.73,1.52-1.27,1.5-2.5.6.42.04-1.69,1.5,1.5Z"/>
          <path class="cls-7" d="M93.91,205.7c1.61,3.58-4.61,1.81-4-1.5l4,1.5Z"/>
          <path class="cls-31" d="M137.41,204.7c-1.56,1.92.81,4.63-3,1l3-1Z"/>
          <path class="cls-28" d="M176.41,214.7c-.05-1.18-.86-2.1-1.5-3,4.26-.72,11.7-1.54,15.5-2.5,7.53,5.89,20.77,1.1,14-9.5.46-.17,1.5.38,1.5-.5,12.38,13.12-2.17,20.68-15.75,17.5-1.67-.39-7.04-3.47-7.5-3.5-1.14-.07-3.77,1.72-5,2-.7.16-.86-.62-1.25-.5Z"/>
          <path class="cls-5" d="M132.91,226.2c1.49-1.28,5.34-2.69,5-5,6.58.51,8.09-1.39,4.25,2.5-1.96,1.99-16.32,16.1-17.5,16-2.58-4.96,4.39-10.18,8.25-13.5Z"/>
          <path class="cls-25" d="M119.41,221.2c.28,1.66.62,3.36,1,5,1.19,5.15,2.81,10.67,2,16-.82.37-2.1.76-3,1-.85-1.33-1.11-4.59-2.5-4.5.15-5.32-.11-10.67,0-16,1.56-1.79,2.38-1.42,2.5-1.5Z"/>
          <path class="cls-2" d="M204.41,199.7c6.77,10.6-6.47,15.39-14,9.5,18.87-4.78,4-5.73,14-9.5Z"/>
          <path class="cls-28" d="M164.41,194.2c2.69-3.6,5.65-8.52,6-13,4.64,8.06-2.81,15.86-6,13Z"/>
          <path class="cls-5" d="M81.41,223.2c2.32,2.25,9.76,11.36,4,3.75-.15-3.09,6.53,5.76,7,6.25-4.39-.73,1.23,5.88,2.5,7.5.5,1.99-.97,1.04-1.5,2-3.2-3.06-6.95-5.47-9.25-9.5l-1.25,1.5c-2-3.17-7.75-9.09-10.5-12.5,0-.35-1.4-5.1,0-7,2.94,2.39,6.28,5.37,9,8Z"/>
          <path class="cls-5" d="M88.41,220.2c1.09,2.21,3.35,3.94,5.5,5,5.66,6.7,13.88,14.01,9.5,6.5,2.4-.32,1.56-.22,2-2,.2-.79-.42-1.98.5-2,.01.06.94.34,1,.75.57,3.74.78,12.42,0,16.25-1.23-2.93-21.47-18.17-24.5-24,.72-.47,4.91-.3,6-.5Z"/>
          <path class="cls-5" d="M62.91,210.2c3.82,13.47-.8,3.67-8.5-.5.21-.86,2.11.93,1-1l2,.25c-2.65-15.39-1.75-11.35,5.5,1.25Z"/>
          <path class="cls-29" d="M106.91,244.7c.17.39.4.6.5,1-5.84-3.13-10.48-7.82-15-12.5-.47-.49-7.15-9.34-7-6.25,5.76,7.61-1.68-1.5-4-3.75,2.06-1.29-.26-1.68,1-2.5,3.03,5.83,23.27,21.07,24.5,24Z"/>
          <path class="cls-15" d="M72.41,215.2c-1.4,1.9,0,6.65,0,7-.03,4.91-1.58.82-6-3.25.54-.63,2.34-3.59,2.5-3.75.49-.49,1.46-.72,1.75-2,.87.62,1.65,1.92,1.75,2Z"/>
          <g>
            <path class="cls-21" d="M63.41,178.2c-1.48-1.22-1.32-2.09-2.25-2-.31.03-2.94,2.66-4.75,4-11.55,8.55-2.61,8.98,3.75,18,.83-.27-5.77-15.44-3.25-16,4.02,14.69,22.36,31.36,36.5,37-1.69.35-3.29.69-5,1-1.09.2-5.28.03-6,.5-1.26.82,1.06,1.21-1,2.5-2.72-2.63-6.06-5.61-9-8-.1-.08-.88-1.38-1.75-2-.29,1.28-1.26,1.51-1.75,2h-.5l-3.5-8.5c-1.88-2.59-.99,1.21-2,3.5-7.25-12.6-8.15-16.64-5.5-1.25l-2-.25c-6.28-2.78-5.69-3.99-4.5-11.25.08-.49,1.35,0,1.5-.5.76-2.44-4.02-4.58-4-8.75.03-6.34,8.9-10.83,13.5-14,2.44,2.03,1.19,2.88,1.5,4Z"/>
            <path class="cls-28" d="M56.41,180.2c.07.68.32,1.34.5,2-2.52.56,4.08,15.73,3.25,16-6.36-9.02-15.3-9.45-3.75-18Z"/>
            <path class="cls-15" d="M68.41,215.2c-3.07,5.98-5.78-6.07-3.5-8.5l3.5,8.5Z"/>
            <path class="cls-19" d="M52.66,201.2l2.5,5.5c-1.26-1.5-3.34-3.46-2.5-5.5Z"/>
          </g>
          <path class="cls-21" d="M43.41,205.2c.95.29,1.69.4,2,.5.14.05.83.9,2.5,1.5-3.91,1.73-.59,1.94,0,2.5,5.36,5.13,7.77,3.94,5,6.5-5.12.53-10.48-2.58-15.25-2-.49.06-6.47,2.82-8.5,3-11.51,1.04-18.32-8.9-8.75-18.5-2.58,14.24,5.16,15.21,17.25,13.5l-.5-1c-8.69.23-16.39-7.55-11.75-16,1.65-.84,2.61-1.55,4.5-2,9.51-2.25-1.68,1.44,0,7.75,1.01,3.77,10.43,3.3,13.5,4.25Z"/>
          <path class="cls-25" d="M111.91,224.2c.53,2.67-1.39,46.51-1.5,54.5.13-8.95-2.02-14.76-3-22-.11-.8.11-1.7,0-2.5-.18-1.33-.36-2.66-.5-4-.02-.23,1.07-2.1.5-4.5-.1-.4-.33-.61-.5-1,.78-3.83.57-12.51,0-16.25-.06-.41-.99-.69-1-.75-.9-4.71,1.28-2.87,2.25,0l3.75-3.5Z"/>
          <path class="cls-15" d="M92.41,233.2c4.52,4.68,9.16,9.37,15,12.5.57,2.4-.52,4.27-.5,4.5,0-.67-.54-.23-1-1-.66-1.11-.43-1.86-.75-2-1.56-.68-3.44,2.15-10.25-6.5-1.27-1.62-6.89-8.23-2.5-7.5Z"/>
          <path class="cls-25" d="M123.41,264.2h.5c-2.93,1.4-4.89-.12-6,1.5-.84-.2-1.61-.6-2.5-.5.1-.66-.28-2.06.25-2.5l7.75,1.5Z"/>
          <g>
            <path class="cls-29" d="M105.91,249.2c-1.73-.58-6.5-.26-4,1l5.5,6.5c.98,7.24,3.13,13.05,3,22-.14,9.92-.44,20.36.25,30l3.75-.25c.83-1.57-.25-28.51,0-33.5.02-.32.27,1.44,1-5.75l8-.25-8-1.75c.05-.65-.1-1.38,0-2,.89-.1,1.66.3,2.5.5,5.19,1.23,3.86,2.61,9.5,1,1.55,3.25-.6,8.43-2,14-.02.06-.89.3-1,.75-2.66,10.6-4.13,21.63-6.75,32.25-2.12-.33-6.17.79-7.75-.75-3.54-3.45-6.66-27.8-8.5-31.25-.18-.34.65-1.15-1.25-2-13.91.83,3.77-3.15,2.75-5.25-12.43-2.47-9.94-.7,1.5-4.5-2.47-2.39-5.88-.9-9-3,13.61-5.72-2.73-1.12-.25-4.75,9.49.32,7.69-.35.25-2.5.51-2.34.43-6.66.5-7,.23-1.15,2.2-4.72,2-5.75-.1-.52-3.81-3.59-4.5-4.25.53-.96,2,0,1.5-2,6.81,8.65,8.69,5.82,10.25,6.5.32.14.09.89.75,2Z"/>
            <g>
              <path class="cls-29" d="M114.91,279.7c1.05,0,1.73-.93,2.5-1.5.48,4.31,4.4-4.06,4,4.75-6.1,4.9-7.2,5.18-6.5-3.25Z"/>
              <path class="cls-29" d="M117.41,278.2c-.77.57-1.45,1.5-2.5,1.5.88-10.52,16.02-11.51,2.5-1.5Z"/>
              <path class="cls-21" d="M105.91,249.2c.46.77.99.33,1,1,.14,1.34.32,2.67.5,4-1.68-2.69-2.17-3.58-5.5-4-2.5-1.26,2.27-1.58,4-1Z"/>
              <path class="cls-26" d="M115.41,269.2c.07-.66-.05-1.34,0-2l8,1.75-8,.25Z"/>
              <path class="cls-11" d="M107.41,254.2c.11.8-.11,1.7,0,2.5l-5.5-6.5c3.33.42,3.82,1.31,5.5,4Z"/>
            </g>
          </g>
          <path class="cls-5" d="M25.41,195.2c-4.64,8.45,3.06,16.23,11.75,16l.5,1c-12.09,1.71-19.83.74-17.25-13.5,2.33-2.34,2.18-2.07,5-3.5Z"/>
          <path class="cls-13" d="M116.91,222.7c-.11,5.33.15,10.68,0,16-.09,2.98-.49,3.32-.5,3.5-.2,5.49.14,11.07-1,16.5-.26-2.2-.52-33.57,0-35.25.26-.84,1.44-.69,1.5-.75Z"/>
          <g>
            <path class="cls-26" d="M171.91,210.7c.65.95,2.51,2.35,3,4-.56.21-1.13.49-1.5,1-1.32.07-2.68-.11-4,0l-10-1c5.09-6.39,4.96-2.12,12.5-4Z"/>
            <path class="cls-21" d="M169.41,215.7c-1.65.13-3.42.84-5,1-1.19.12-4.14-.28-6,0,.09-.11-.98.49,1-2l10,1Z"/>
          </g>
          <path class="cls-29" d="M119.41,243.2c-.21.05.47,2.68-3-1,0-.18.41-.52.5-3.5,1.39-.09,1.65,3.17,2.5,4.5Z"/>
          <path class="cls-21" d="M105.41,229.7c-.44,1.78.4,1.68-2,2-.06,0,.05-.41-.75-1-.91,1.21.72.95.75,1,4.38,7.51-3.84.2-9.5-6.5,1.26.62,7.61,1.9,11.5,4.5Z"/>
          <g>
            <path class="cls-21" d="M212.41,201.7l-2.5-.5c-2.49-4.11-4.75-4.65-8.25-7.5-5.86-1.87,3.24,4.43,4.25,5.5,0,.88-1.04.33-1.5.5-10,3.77,4.87,4.72-14,9.5-3.8.96-11.24,1.78-15.5,2.5-1.66-2.33-5.81-7.43-6-6-.03-.06-1.15.35-1-.75.07-.47,4.23-4.33,4.25-8.25-7.76,7.64-36.93,37.57-41.5,41-.38.28-7.24,4.05-8.25,4.5.81-5.33-.81-10.85-2-16h12.5c-3.86,3.32-10.83,8.54-8.25,13.5,1.18.1,15.54-14.01,17.5-16,3.84-3.89,2.33-1.99-4.25-2.5-1.12-.09-2.45.16-3.5,0,7.91-7.5,23.97-18.93,30-27,3.19,2.86,10.64-4.94,6-13-1.54-2.68-4-4.09-6.25-6-1.31-.16-.5,1.35-.75,2l-.5-3.5c6,3.8,11.04,4.98,13.75,13,9.78-4.99,30.52,6.72,35.75,15Z"/>
            <g>
              <path class="cls-25" d="M130.16,226.7l1,.5c-10.11,7.59-13.52,2.48-1-.5Z"/>
              <g>
                <path class="cls-17" d="M174.91,211.7c.64.9,1.45,1.82,1.5,3-1.43.44-1.24-.1-1.5,0-.49-1.65-2.35-3.05-3-4-.94-1.37-2.28-3.51-3-5,.19-1.43,4.34,3.67,6,6Z"/>
                <g>
                  <path class="cls-25" d="M194.41,196.7l-5.25-1,.75-.75c-2.65-2.44-2.51-4.17-6.75-2.25-3.71,3.75,1.57,5.25,1.25,9-.97.3-.2.3-3,.5-.66.05-3.47-.48-4-.5.47-7.75,1.73-9.19,7-14,3.87.21,12.23,2.99,14,6.75-6.7,1.35-3.28,1.16-4,2.25Z"/>
                  <path class="cls-17" d="M193.41,197.7c-5.1,3.99.73.04,3.75,2.5v1c-7.81,1.77-15.7,4.65-24,7-3.67-2.57,2.57-3.49,8.25-6,2.8-.2,2.03-.2,3-.5,4.27-1.33,4.66-4.12,9-4Z"/>
                  <path class="cls-26" d="M184.41,187.7c-5.27,4.81-6.53,6.25-7,14-.23,0-1.06,1.14-4.5.25,5.21-8.62-1.05-14.93,11.5-14.25Z"/>
                  <g>
                    <path class="cls-1" d="M194.41,196.7c-.67,1.01-.18.36-1,1-4.34-.12-4.73,2.67-9,4,.32-3.75-4.96-5.25-1.25-9,4.24-1.92,4.1-.19,6.75,2.25l-.75.75,5.25,1Z"/>
                    <path class="cls-6" d="M186.66,193.2l1.75,1.75c-4.83,2.41-5.94,1.59-1.75-1.75Z"/>
                  </g>
                </g>
              </g>
            </g>
          </g>
          <g>
            <path class="cls-25" d="M45.41,187.7c.43,0,1.9-.01,2,0,.1.01-.44,1.56,1,.5-.02,4.17,4.76,6.31,4,8.75-.15.5-1.42.01-1.5.5-1.19,7.26-1.78,8.47,4.5,11.25,1.11,1.93-.79.14-1,1-.46-.25-5.14-2.02-6.5-2.5-1.67-.6-2.36-1.45-2.5-1.5,1.89-1.01-2.75-3.74-4-4.5,3.22-5.1,6.26-11.48-2.75-10.5-2.42-.21-2.05,8.84-1.75,9.25.36.49,1.19-.11,2.5.75l-5.5.25c3,2.75,9.02,1.99,9.5,4.25-3.07-.95-12.49-.48-13.5-4.25-1.68-6.31,9.51-10,0-7.75l-.5-1.5c5.25-2.18,9.14-3.76,15-4,.19,0,.76,0,1,0Z"/>
            <path class="cls-35" d="M39.41,200.7c1.22.8,1.84.4,2,.5,1.25.76,5.89,3.49,4,4.5-.31-.1-1.05-.21-2-.5-.48-2.26-6.5-1.5-9.5-4.25l5.5-.25Z"/>
            <path class="cls-17" d="M56.91,216.7c-2.26.17-.23-1.37-1.25-2-.17-.11.27,1.19-2.75,1.5,2.77-2.56.36-1.37-5-6.5,9.98,3.18,11.33,2.05,9,7Z"/>
            <g>
              <path class="cls-38" d="M41.41,201.2c-.16-.1-.78.3-2-.5-1.31-.86-2.14-.26-2.5-.75-.3-.41-.67-9.46,1.75-9.25,9.01-.98,5.97,5.4,2.75,10.5Z"/>
              <path class="cls-6" d="M39.66,193.2l2.25,1.25c-.61,4.12-4.8,1.99-2.25-1.25Z"/>
            </g>
          </g>
          <path class="cls-5" d="M103.41,231.7c-.03-.05-1.66.21-.75-1,.8.59.69,1.01.75,1Z"/>
        </g>
      </g>
      <g>
        <path class="cls-28" d="M146.41,164.2c-.45-.24-1.87-.53-2.5-.5.92-1.54,2.11-2.95,3-4.5,17.47-16.85,33.25-29.51,46-50.75,13.03-21.69,18.07-40.51,2-62.5-1.39-1.9-8.31-10.24-10-10.25-.67-1.01-.8-1.13-1.5-2-10.97-13.72-47.02-29.06-64.25-30.5-22.88-1.91-54.87,10.54-72.25,25.5-3.46,2.98-6.01,5.05-8.5,9l-.75-.5c-7.09,7.53-15.86,21.38-16.75,31.75-1.67,19.47,14.9,45.99,27.5,60.25,4.26,4.82,14.81,15.09,19.75,19.5,2.25,2.01,4.92,4.73,5.75,3.5,2.65,3.39,4.91,7.11,7.5,10.5-1.06.67-1.86,1.42-3,2l.5-.75c-23.73-21.14-59.33-54.3-61.5-88C14.71,34.04,77.45-3.03,119.16.2c28.63,2.22,70.22,26.27,83.75,52.25,21.57,41.43-28.33,87.13-56.5,111.75Z"/>
        <path class="cls-14" d="M46.91,28.7c3.19,17.44,11.97,33.43,18,50-13.2-1.78-26.89,10.11-26.5,23.5-12.36-19.65-12.52-44.69,0-64.5,2.49-3.95,5.04-6.02,8.5-9Z"/>
        <path class="cls-14" d="M184.91,35.7c1.53,2.32,7.1,14.47,8,17.25,6.1,18.84,3.91,33.29-5.5,49.75.37-13.84-14.21-27.55-30-23,7.74-15.88,16.75-30.98,26-46,.7.87.83.99,1.5,2Z"/>
        <path class="cls-20" d="M146.91,159.2c1.31-2.28,4.53-12.12,6-14.25,3.07-4.44,11.55-8.6,15.75-12.75,2.65-2.62,3.05-4.78,3.25-5,6.65-7.07,15.21-13.82,15.5-24.5,9.41-16.46,11.6-30.91,5.5-49.75-.9-2.78-6.47-14.93-8-17.25,1.69.01,8.61,8.35,10,10.25,16.07,21.99,11.03,40.81-2,62.5-12.75,21.24-28.53,33.9-46,50.75Z"/>
        <path class="cls-20" d="M38.41,37.7c-12.52,19.81-12.36,44.85,0,64.5.26,8.98,9.81,20.35,17,25.5l-2.5,2c-1.72-.73-1.53,1.27-4.5-.5-12.6-14.26-29.17-40.78-27.5-60.25.89-10.37,9.66-24.22,16.75-31.75l.75.5Z"/>
        <path class="cls-21" d="M122.41,175.7c.81,1.01,2.66,1.52,1,5-2.46-.64-9.07-4.64-10.75-4.5-.62.05-6.91,4.38-8.75,5-2.21.17-.47-4.71-.5-5,1.42-.89,9.63-7,10.25-7,.55,0,8.41,6.07,8.75,6.5Z"/>
        <g>
          <path class="cls-14" d="M171.91,127.2c-.2.22-.6,2.38-3.25,5-4.2,4.15-12.68,8.31-15.75,12.75-1.47,2.13-4.69,11.97-6,14.25-.89,1.55-2.08,2.96-3,4.5-6.83,11.4-19.96,28.06-30.75,36-13.55-9.78-21.81-24.01-31.75-37-2.59-3.39-4.85-7.11-7.5-10.5-3.84-4.93-15.88-20.32-21-22.5l2.5-2c9,6.45,27.5,12.35,37.75,7.5.14-.07,1.31-2.4,2-2.5,1.07-.16.49,1,1.25,1,.61,2.09,1.2,4.49,2,6.5l-11,5.25c5.47,1.82,11.92.98,16.5,5-2.09,6.9-2.11,2.79-9.5,6.5,11.27,3.83,6.7,5.45,8,19,.04.42.99.2,1,.25.03.29-1.71,5.17.5,5,1.2,1.27,7.69-3.91,8.25-4,3.21-.5,13.63,7.5,11.25,3.5,1.66-3.48-.19-3.99-1-5,3.49-9.82-2.13-9.96,8.5-18.75l-6.25-1.25c-2.14-6.3,3.94-5.51,10.25-10.25l-6.5-6.75c.36-.78,1.53-5.24,2.25-5.5,2.07-.76,8.38,12.4,41.25-6Z"/>
          <path class="cls-20" d="M52.91,129.7c5.12,2.18,17.16,17.57,21,22.5-.83,1.23-3.5-1.49-5.75-3.5-4.94-4.41-15.49-14.68-19.75-19.5,2.97,1.77,2.78-.23,4.5.5Z"/>
          <path class="cls-21" d="M117.91,189.2c-2.56.42-7.42-.31-10.5,0-1.83-1.95-3.83-.74,6.25-7.5,5.47,4.77,8.84,6.74,4.25,7.5Z"/>
          <path class="cls-39" d="M117.91,189.2c-5.39,6.24-5.18,5.64-10.5,0,3.08-.31,7.94.42,10.5,0Z"/>
          <path class="cls-23" d="M123.41,180.7c2.38,4-8.04-4-11.25-3.5-.56.09-7.05,5.27-8.25,4,1.84-.62,8.13-4.95,8.75-5,1.68-.14,8.29,3.86,10.75,4.5Z"/>
        </g>
        <g>
          <path class="cls-9" d="M183.41,33.7c-9.25,15.02-18.26,30.12-26,46-20.08,5.78-29.43,46.77-35.5,64.25,2.82,6.01,4.06.03,6.5-5.25l6.5,6.75c-6.31,4.74-12.39,3.95-10.25,10.25l6.25,1.25c-10.63,8.79-5.01,8.93-8.5,18.75-.34-.43-8.2-6.5-8.75-6.5-.62,0-8.83,6.11-10.25,7,0-.05-.96.17-1-.25-1.3-13.55,3.27-15.17-8-19,7.39-3.71,7.41.4,9.5-6.5-4.58-4.02-11.03-3.18-16.5-5l11-5.25c1.15,2.88,2.34,7.23,6.5,6.75-1.46-5.27-2.98-10.5-4.5-15.75-4.65-16-15.85-49.86-35.5-52.5-6.03-16.57-14.81-32.56-18-50C64.29,13.73,96.29,1.29,119.16,3.2c17.23,1.44,53.28,16.78,64.25,30.5Z"/>
          <path class="cls-21" d="M98.41,140.2c-.8-2.01-1.39-4.41-2-6.5,3.36-.02,3.68,1.43,4-2.5,1.52,5.25,3.04,10.48,4.5,15.75-4.16.48-5.35-3.87-6.5-6.75Z"/>
          <path class="cls-28" d="M106.16,151.7c9.46,5.57-.87,4.37-1.25,3.25l1.25-3.25Z"/>
          <path class="cls-21" d="M119.66,152.7l.5,3c-6.47.19-4.2-.3-.5-3Z"/>
        </g>
        <g>
          <g>
            <path class="cls-27" d="M187.41,102.7c-.29,10.68-8.85,17.43-15.5,24.5-32.87,18.4-39.18,5.24-41.25,6-.72.26-1.89,4.72-2.25,5.5-2.44,5.28-3.68,11.26-6.5,5.25,6.07-17.48,15.42-58.47,35.5-64.25,15.79-4.55,30.37,9.16,30,23Z"/>
            <g>
              <path class="cls-30" d="M182.91,101.2c-9.22,17.43-29.37,25.74-48,28.5-.17-.42-.57-5.03-.5-5.5,1.34.95,3.89-.74,6.5-1.5,2.57-.75,3.54-1.95,3.75-2,.32-.08-.29,1.92,6,.5,3.76-.85,14.52-6.35,13.75-11.5,5.6-3.66,12.93-8.77,13.5-16,1.03,1.49,3.03,5.55,3.75,6,1.32.81,2.09-3.22,1.25,1.5Z"/>
              <path class="cls-34" d="M182.91,101.2c-2.22,12.47-14.27,22.28-25.75,26.5-3.34,1.23-20.61,5.98-22.25,2,18.63-2.76,38.78-11.07,48-28.5Z"/>
              <path class="cls-33" d="M164.41,109.7c.77,5.15-9.99,10.65-13.75,11.5-6.29,1.42-5.68-.58-6-.5-.21.05-1.18,1.25-3.75,2,.47-1.03,1.58-1.49,2.5-2,6.42-3.59,15.16-7.19,21-11Z"/>
              <g>
                <path class="cls-10" d="M177.91,93.7c-.57,7.23-7.9,12.34-13.5,16-5.84,3.81-14.58,7.41-21,11,8.12-6.14,3.61-4.2,4-5.75.11-.43,4.13-3.86,6-6.5,1.43-2.02,10.93-15.51,11-16.5.02-.33-2.39-5.65-4.5-3.75-7.66.5-15.8,8.91-16.5,16.5l-1.5-1.5c5.04-11.3,14.46-22.3,28.25-17.5,5.26,1.83,6.14,5.68,7.75,8Z"/>
                <path class="cls-10" d="M143.41,120.7c-.92.51-2.03.97-2.5,2-2.61.76-5.16,2.45-6.5,1.5.34-2.29,5.98-17.6,7.5-21l1.5,1.5,1.25.5c4.64-7.68,15.94-14.01,15.25-17,2.11-1.9,4.52,3.42,4.5,3.75-.07.99-9.57,14.48-11,16.5-1.87,2.64-5.89,6.07-6,6.5-.39,1.55,4.12-.39-4,5.75Z"/>
                <path class="cls-16" d="M159.91,88.2c.69,2.99-10.61,9.32-15.25,17l-1.25-.5c.7-7.59,8.84-16,16.5-16.5Z"/>
              </g>
            </g>
          </g>
          <g>
            <path class="cls-27" d="M64.91,78.7c19.65,2.64,30.85,36.5,35.5,52.5-.32,3.93-.64,2.48-4,2.5-.76,0-.18-1.16-1.25-1-.69.1-1.86,2.43-2,2.5-10.25,4.85-28.75-1.05-37.75-7.5-7.19-5.15-16.74-16.52-17-25.5-.39-13.39,13.3-25.28,26.5-23.5Z"/>
            <path class="cls-39" d="M90.91,129.2c-5.99,7.17-46.25-6.45-47.5-27,10.14,16.71,28.63,24.94,47.5,27Z"/>
            <g>
              <path class="cls-30" d="M90.91,129.2c-18.87-2.06-37.36-10.29-47.5-27-.04-.58,2.17-10.78,2.5-11.25.38-.55,1.61-.07,1.75-.25,9.73-12.24,23-7.38,31.75,3.25,5.37,6.53,16.14,29.69,11.5,35.25Z"/>
              <path class="cls-33" d="M60.91,109.2c3.79,2.48,12.83,6.75,17.5,9l-6.25,2.5c-5.42-2.96-11.67-3.87-12.25-11.25l1-.25Z"/>
              <g>
                <path class="cls-10" d="M78.41,118.2c-4.67-2.25-13.71-6.52-17.5-9-6.99-4.57-20.33-15.72-7.75-22.5,20.95-11.29,35.38,21.62,38.75,37.25-.54,1.09-11.93-4.99-13.5-5.75Z"/>
                <path class="cls-12" d="M66.16,88.7c10.07.98,18.01,15.72,14.5,16-3.97-6.49-18-15.29-14.5-16Z"/>
              </g>
            </g>
          </g>
        </g>
      </g>
    </g>
  </g>
</svg>