<?xml version="1.0" encoding="UTF-8"?>
<svg id="Layer_2" data-name="Layer 2" xmlns="http://www.w3.org/2000/svg" viewBox="0 0 311.69 435.2">
  <defs>
    <style>
      .cls-1 {
        fill: #e1a664;
      }

      .cls-1, .cls-2, .cls-3, .cls-4, .cls-5, .cls-6, .cls-7, .cls-8, .cls-9, .cls-10, .cls-11, .cls-12, .cls-13, .cls-14, .cls-15, .cls-16, .cls-17, .cls-18, .cls-19, .cls-20, .cls-21, .cls-22, .cls-23, .cls-24, .cls-25 {
        stroke-width: 0px;
      }

      .cls-2 {
        fill: #45565f;
      }

      .cls-3 {
        fill: #1ba8ff;
      }

      .cls-4 {
        fill: #ffc0b5;
      }

      .cls-5 {
        fill: #ffd08c;
      }

      .cls-6 {
        fill: #b7d3df;
      }

      .cls-7 {
        fill: #628593;
      }

      .cls-8 {
        fill: #638492;
      }

      .cls-9 {
        fill: #daceb1;
      }

      .cls-10 {
        fill: #5ea6ac;
      }

      .cls-11 {
        fill: #000;
      }

      .cls-12 {
        fill: #5dabb1;
      }

      .cls-13 {
        fill: #ffbfb5;
      }

      .cls-14 {
        fill: #43545d;
      }

      .cls-15 {
        fill: #5b7381;
      }

      .cls-16 {
        fill: #b7d2de;
      }

      .cls-17 {
        fill: #b8d3df;
      }

      .cls-18 {
        fill: #b8d4e0;
      }

      .cls-19 {
        fill: #61828e;
      }

      .cls-20 {
        fill: #9d9796;
      }

      .cls-21 {
        fill: #5fadb3;
      }

      .cls-22 {
        fill: #cf7b44;
      }

      .cls-23 {
        fill: #495c65;
      }

      .cls-24 {
        fill: #b7abaa;
      }

      .cls-25 {
        fill: #5c7280;
      }
    </style>
  </defs>
  <g id="Layer_1-2" data-name="Layer 1">
    <path class="cls-19" d="M278.76,76c-6.29,8.86-15.45,14.39-24.81,18.77-15.47,7.24-31.64,12.97-47.5,19.38-3.44,1.39-6.81,2.94-10.01,4.33.5,1.97.86,3.36.9,4.87-.99-.31-1.65-1.08-2.36-1.13-10.91-.76-21.82-1.46-32.74-2.06-.73-.04-1.51.78-2.27,1.2.04.46.07.91.11,1.37,12.13,1.82,24.36,2.61,36.69,2.36-7.8,16.35-15.81,21.8-34.56,22.54.74-3.08-.73-3.44-2.92-3.59-2.87-.19-5.72-.7-8.61-1.5-.34-3.55-.55-6.69-.98-9.8-1.5-10.72-2.91-21.62-11.28-29.58-7.65-7.28-15.78-14.06-23.68-21.09-4.38-3.9-8.7-7.88-12.59-11.91,7.07-.52,13.89-.05,20.23-1.57,10.56-2.53,14.6-11.7,10.41-21.81-1.26-3.03-2.93-6.08-5.11-8.49-7.32-8.11-16.62-12.55-27.54-13.24-4.8-.3-9.63-.11-14.42-.48,1.24-1.65,2.23-3.36,3.71-4.18,5.9-3.27,11.97-6.22,17.93-9.38,2.86-1.52,5.6-3.26,8.39-4.91,18.21,6.25,36.24,13.13,54.71,18.48,8.29,2.4,17.45,2.13,26.24,2.38,8.33.23,16.73.06,25-.85,10.73-1.18,21.35-3.33,32.04-4.95,8.34-1.27,16.58-3.98,25.56-1.8.38.27.3.7.06,1,.42,3.71,1.09,7.11,1.88,10.93,3.36,14.41,5.08,28.32-2.12,41.76-.43.81-.25,1.96-.35,2.95M271.92,56.48c-11.97-11.9-34.4-14.67-48.65-6.02-9.94,6.04-11.69,18.78-2.44,24.87,13.71,9.03,29.08,11.65,44.72,5.38,9.82-3.94,12.55-15.06,6.36-24.23Z"/>
    <path class="cls-13" d="M8.6,173c7.39-5.37,14.51-11.2,22.31-15.89,3.08-1.85,7.8-2,11.54-1.42,3.51.54,6.69,3.11,10.07,4.69,9.85,4.6,19.7,9.21,29.61,13.7,3.16,1.43,6.5,2.47,10.29,4.17,9.88,2.71,19.14,5.39,28.58,7.08,20.05,3.61,40.28,4.81,60.59,2.58,2.75-.3,5.38-1.72,8.07-2.62,10.54-2.35,21.06-4.85,31.64-6.98,5.41-1.09,10.95-1.63,16.45-2.18,3.27-.32,5.45,1.26,6.3,4.61,1.14,4.51,2.43,8.99,3.26,13.71-2.17.23-4.11-.25-5.69.3-24.33,8.45-49.33,13.03-75.06,14.63-24.18,1.51-48.18.97-71.89-3.92-30.35-6.26-58.46-18.73-86.06-32.45Z"/>
    <path class="cls-18" d="M176.64,266.19c.28,11.89-2.38,23.23-7.5,33.82-5.75,11.89-12.43,23.33-18.36,35.14-8.55,17.04-11.83,34.52-3.1,52.65.2.41.04.99-.14,2.05-.48,1.05-.78,1.54-1.3,2.17-.65.49-1.07.83-1.88,1.2-2.48.34-4.58.65-7.09.88-3.45-.36-6.48-.63-9.93-.99-5.77-1.1-11.11-2.12-16.45-3.13,1.69-2.85,3.16-5.86,5.11-8.52,7.59-10.33,11.39-22.24,14.71-34.37.98-3.57,2.26-7.08,2.89-10.71.92-5.33,4.74-8.42,8.16-11.97,6.15-6.36,8.9-14.45,10.99-22.81,1.01-4.06,1.94-8.15,2.88-12.23,1.15-5.03-.56-7.33-5.77-7.24-4.91.09-9.81.53-14.71.92-.86.07-2.14.43-2.45,1.05-4.09,8.01-8.03,16.09-12.39,24.51-3.14,5.71-5.9,11.06-8.66,16.4-2.25,4.07-4.5,8.15-7.33,12.55-3.23,6.06-5.88,11.8-8.8,17.76-1.71,5.09-3.15,9.95-4.59,14.81-2.4,10.09-4.8,20.17-7.19,30.26-.37,1.54-.69,3.09-1.42,4.92-4.8-.16-9.21-.6-13.97-1.15-1.08-.17-1.81-.22-2.86-.48-4.14-.95-7.96-1.69-12.14-2.54-1.78-.41-3.19-.72-4.81-1.3-1.1-1.79-2-3.31-2.89-4.83,6.99-6.08,13.98-12.15,21.4-18.55,6.37-5.01,9.83-11.23,11.65-18.86,1.75-3.74,3.44-7.11,5.45-10.61,2.02-3.41,3.72-6.7,5.6-10.3,2.41-5.08,4.64-9.86,7.14-14.86,1.3-2.56,2.33-4.88,3.6-7.47,2.18-4.96,4.14-9.66,6.27-14.69,2.46-7.78,4.66-15.26,7.1-22.66,1.03-3.13,2.54-6.09,4.26-9.17,2.04-.32,3.67-.81,5.3-.84,17.75-.31,35.51-.55,53.26-.81Z"/>
    <path class="cls-14" d="M115.4,5.95c-2.45,1.8-5.19,3.55-8.05,5.07-5.96,3.17-12.03,6.11-17.93,9.38-1.48.82-2.46,2.54-4.08,4.3-1.86.82-3.31,1.18-4.76,1.55-10.9,2.76-14.57,8.7-11.99,19.6,2.58,10.9,9.84,17.52,20.05,21.09,4.22,1.47,8.68,2.24,13.04,3.32,4.35,3.94,8.67,7.91,13.05,11.82,7.89,7.03,16.02,13.81,23.68,21.09,8.37,7.96,9.79,18.86,11.28,29.58.43,3.11.65,6.25.57,9.85-2.36.2-4.4.17-6.28-.4-5.07-1.54-10.07-3.31-15.1-5-.43-3.28-.92-6.56-1.29-9.84-.61-5.35-4.55-8.29-8.43-10.96-5.41-3.73-11.24-6.85-16.78-10.41-13.56-8.71-27.45-16.97-40.4-26.52-6.5-4.79-11.22-12-16.82-18.6.43-15.52,7.99-27.16,18.09-37.86,7.67-6.2,15.1-12.2,22.35-18.42,1.09-.94,1.32-2.88,1.95-4.36,7.18,1.17,14.37,2.25,21.52,3.55,2.05.37,3.99,1.33,6.32,2.18Z"/>
    <path class="cls-22" d="M37.9,321.04c2.04-5.24,3.54-10.78,6.22-15.67,7.82-14.25,16.07-28.26,24.23-42.32,3.09-5.32,6.4-10.51,9.95-15.5,3.7,4.36,7.05,8.47,10.41,12.56,0-.02-.02-.03.08.19.28.5.53.7.85.84.01,0,.02.04.12.22.27.41.47.59,1.1.76,1.16.02,1.93,0,2.78.45.04,5.91-.16,11.36.04,16.8.2,5.53.79,11.05,1.12,16.92-2.66,5.79-.67,11.14.13,16.98-.14,2.89-.19,5.32-.41,8.06-2.51,4.92-6.98,3.28-11.14,3.84-2.91.01-5.36.05-8,.07-.19-.03-.59-.02-1.06-.06-5.24.01-10.01.06-15.06.06-.67-.05-1.06-.05-1.9-.09-6.8-1.4-13.14-2.75-19.48-4.11Z"/>
    <path class="cls-24" d="M8.29,173.15c27.91,13.57,56.02,26.04,86.37,32.3,23.72,4.89,47.71,5.43,71.89,3.92,25.73-1.6,50.73-6.18,75.06-14.63,1.58-.55,3.52-.07,5.62.1.4,3.27.47,6.38.06,9.85-8.79,2.71-17.02,5.41-25.44,7.33-11.63,2.64-23.39,4.7-35.31,7.13-.68.37-1.14.61-2,.8-1.47.03-2.53.11-4.06.11-20.24-.65-40.01-1.23-60.16-1.88-2.83.2-5.27.49-8.06.67-3.7-.63-7.05-1.16-10.59-2.02-4.42-1.13-8.64-1.93-13.21-2.89-1.81-.32-3.28-.48-5.17-.72-11.49-3.16-22.57-6.25-33.8-9.48-.4-.26-.62-.42-1.07-.63-.41-.07-.58-.12-.93-.37-.74-.34-1.27-.48-1.78-.63.03-.01.05.05-.19-.19-1.13-.42-2.01-.6-2.84-.78.05,0,.06.1-.1-.23-1.77-.82-3.37-1.31-5.21-1.8-.23,0-.65-.16-.87-.36-.79-.35-1.36-.49-2.14-.62-.21,0-.59-.15-.69-.48-2.73-1.39-5.36-2.44-8.32-3.63-5.24-3.98-10.14-7.84-15.1-11.63-.21-.16-.97.43-1.54.96-1.64-.21-3.23-.72-4.81-1.23,1.36-2.94,2.73-5.87,4.4-8.95Z"/>
    <path class="cls-22" d="M128.7,137.55c5.21,1.33,10.21,3.1,15.28,4.64,1.88.57,3.91.6,6.3.82,3.28.32,6.13.83,9,1.02,2.19.15,3.66.51,2.49,3.5-8.68.46-10.97,2.28-9.81,9.27.39,2.38,2.5,5.03,4.58,6.49,7.49,5.3,15.29,10.15,22.96,15.81-2.77,1.72-5.44,3.07-8.28,3.8-19.23,5-37.9.93-56.35-4.2-4.64-1.29-8.78-4.42-13.15-6.7,6.03-3.98,12.4-7.56,17.95-12.13,2.79-2.29,4.58-6.19,5.94-9.71,1.5-3.89,1.99-8.17,3.1-12.64Z"/>
    <path class="cls-22" d="M191.85,255.04c1.05,4.51,2.36,8.97,3.08,13.53,1.53,9.66,7.66,16.62,13.49,23.75,3.89,4.76,8.07,9.28,11.98,14.02.72.87.76,2.31.34,3.66-4.78,1.01-9.43-2.01-12.89,2.57.2,2.06.41,3.76.31,5.55-3.02,1.39-5.72,2.68-8.74,3.96-.72.06-1.13.12-2,.12-3.85-.09-7.24-.13-11.09-.17-5.34-.1-10.58,1.47-14.52-3.01,1.03-7.42,2.01-14.85,3.11-22.26,1.21-8.2,2.48-16.38,3.84-24.56.42-2.52,1.2-4.97,2.36-7.79,2.89-1.26,5.24-2.19,7.92-3.27,1.15-2.14,1.98-4.13,2.8-6.12Z"/>
    <path class="cls-7" d="M59.56,325.3c4.77-.05,9.54-.1,14.56.24,0,4.96-.27,9.54-.6,15.19,1.28-1.56,1.69-2.07,2.15-2.12,1.02,6.75,1.98,13.05,2.95,19.36-1.75,7.26-5.21,13.48-11.51,18.16-1.32-.51-2.84-1.68-3.17-1.41-4.31,3.55-7.39.1-10.57-1.83-3.6-2.19-7.14-4.57-10.41-7.22-5.95-4.84-10.63-10.41-9.23-18.95,1.36-8.31,2.54-16.64,3.99-25.32,6.53,1.01,12.87,2.37,19.63,4.22.75,10.81,1.09,21.12,1.41,31.86.77,5.24,1.54,10.06,2.31,14.87.41-.07.83-.15,1.24-.22-.54-5.03-1.09-10.06-1.65-15.51-.38-10.71-.74-21.01-1.1-31.31Z"/>
    <path class="cls-14" d="M176.68,265.78c-17.8.67-35.55.91-53.3,1.22-1.63.03-3.25.52-5.27.39-.74-6.16-1.32-11.9-1.36-17.65-.03-3.9.69-7.81,1.48-11.66,4.1.08,7.8.1,11.97.15,15.46.28,30.46.53,45.86.87,1.8.07,3.18.05,4.59.47-.29,4.12-.6,7.8-.91,11.48-1.01,4.78-2.01,9.55-3.06,14.73Z"/>
    <path class="cls-10" d="M87.15.18c-.22,1.52-.45,3.47-1.54,4.4-7.25,6.22-14.68,12.22-22.82,18.39-11.86.86-22.95,1.54-34.02,2.44-2.74.22-5.42,1.19-8.13,1.81-.61-5.08-1.7-10.16-1.68-15.24.01-3.55,7.38-7.79,12.63-8.2,6.91-.53,13.82-1.14,20.72-1.73,7.65-.65,15.29-1.44,22.95-1.95,3.81-.25,7.65,0,11.89.07Z"/>
    <path class="cls-8" d="M186.8,322.04c3.39.04,6.77.08,10.59.59-.44,7.18-1.14,13.92-2.24,20.59-1.69,10.25-3.65,20.46-5.49,30.69-7.8,1.39-15.56,3.17-23.42,4-3.26.34-5.03-3.71-3.51-6.78,1.07-2.17,2.45-4.2,3.95-6.92,4.85-8.6,9.83-16.37,13.89-24.59,2.74-5.53,4.2-11.7,6.23-17.58Z"/>
    <path class="cls-14" d="M186.34,322.04c-1.57,5.88-3.03,12.05-5.77,17.58-4.07,8.22-9.04,15.99-13.79,24.26-4.47.28-8.77.3-13.08.22-4.98-.09-6.39-2.02-4.1-6.53,2.67-5.25,6.04-10.13,8.99-15.24,4.35-7.54,8.59-15.14,13.05-23.01,4.11,4.18,9.35,2.61,14.69,2.71Z"/>
    <path class="cls-6" d="M20.68,27.62c2.67-1.02,5.35-1.98,8.09-2.21,11.07-.9,22.16-1.57,33.72-2.31-9.33,10.59-16.89,22.24-17.62,37.59-5.42,0-9.07-2.41-11.98-6.85-5.29-8.07-9.81-16.41-12.2-26.22Z"/>
    <path class="cls-15" d="M53.7,401.23c3.82.75,7.64,1.49,11.64,2.78-3.2,7.66-6.69,14.72-9.87,21.93-.65,1.47-3.12,3.69.34,5.15-4.52,1.33-8.96,3.31-13.57,3.82-6.04.67-12.21-.06-18.31.25-4.03.21-6.98-.98-8.85-4.79,11.17-7.99,22.18-15.51,33.05-23.25,2.16-1.54,3.72-3.9,5.56-5.89Z"/>
    <path class="cls-8" d="M199.73,322.09c2.7-1.29,5.41-2.58,8.72-3.71,2.85,9.25,5.23,18.31,7.3,27.45,1.29,5.71,2.1,11.52,3.12,17.28-1.58,5.2-5.71,5.07-9.88,4.6-4.51-.5-9-1.2-13.26-1.77-1.07,1.75-1.9,3.08-3.15,4.49-.04-2.18.37-4.43.72-6.68,2.15-13.88,4.28-27.77,6.42-41.65Z"/>
    <path class="cls-15" d="M110.83,390.43c5.39.57,10.74,1.58,16.56,3.02,3,3.91,5.58,7.35,8.03,10.88,4.14,5.95,8.21,11.96,12.3,17.94-9.22-.37-18.44-.79-27.66-1.11-7.31-.25-12.35-6.27-11.28-13.2.88-5.66,1.34-11.38,2.04-17.53Z"/>
    <path class="cls-16" d="M279.13,76c-.27-.99-.46-2.14-.02-2.95,7.19-13.45,5.47-27.35,2.58-41.72,3.69.41,7.05,1.17,10.39,1.99,6.51,1.59,13.01,3.22,19.52,4.84-2.43,5.29-3.85,11.45-7.51,15.67-6.87,7.92-15.03,14.74-22.7,21.95-.37.35-1.25.16-2.26.22Z"/>
    <path class="cls-25" d="M137.7,394.19c2.09-.32,4.18-.63,6.73-.64.94.96,1.31,1.78,1.94,2.22,7.79,5.37,15.63,10.67,23.44,16.02,5.03,3.45,10.03,6.96,15.04,10.44-3.96,1.61-7.8,3.84-11.91,4.65-4.76.94-9.77.63-14.95.19-5.15-8.49-10.01-16.31-14.87-24.13-1.81-2.91-3.61-5.84-5.41-8.76Z"/>
    <path class="cls-13" d="M3.83,182.5c1.64.11,3.23.62,5.19,1.01,1.45,2.23,2.12,4.91,3.67,6.88,9.91,12.59,23.22,20.65,37.74,26.54,10.08,4.09,20.71,6.83,31.17,10.51-.26,1.82-.6,3.29-.93,4.77-14.14-1.7-27.39-6.35-39.73-13.21-9.28-5.17-18.44-10.79-26.75-17.36-5.66-4.48-9.74-10.94-10.36-19.14Z"/>
    <path class="cls-9" d="M101.34,172.06c4.74,2.24,8.88,5.37,13.52,6.65,18.45,5.12,37.12,9.2,56.35,4.2,2.83-.74,5.51-2.09,8.42-3.48,3.24,1.63,6.32,3.58,9.71,5.69-2.38,1.06-5.01,2.47-7.76,2.77-20.31,2.22-40.54,1.02-60.59-2.58-9.44-1.7-18.7-4.38-28.24-6.92,2.6-2.3,5.41-4.3,8.59-6.34Z"/>
    <path class="cls-15" d="M45.28,395.1c1.24,1.43,2.14,2.95,3.07,5.03-9.43,6.99-18.97,13.31-28.31,19.92-3.69,2.61-6.93,5.88-10.37,8.85-.66.05-1.48.38-1.95.11-2.62-1.48-5.16-3.11-7.72-4.69,1.44-2.12,2.42-4.97,4.4-6.24,8.11-5.2,16.47-10.02,24.86-14.77,5.12-2.9,10.44-5.42,16.02-8.2Z"/>
    <path class="cls-15" d="M68.69,404.27c4.41.44,8.82.89,13.55,1.44,1.71,5.96,3.42,11.76,4.39,17.68.74,4.51-2.01,6.69-6.46,6.69-7.14,0-14.28-.04-21.6-.31,1.45-1.14,4.18-1.7,4.54-2.95,2.16-7.42,3.78-15.01,5.58-22.54Z"/>
    <path class="cls-8" d="M207.87,312.2c3.44-4.21,8.09-1.19,12.57-2.01,3.7,6.74,6.71,13.58,10.24,20.14,1.82,3.39.61,4.8-1.98,6.84-2.36,1.85-4.92,4.4-5.68,7.12-1.49,5.31-1.78,10.96-3.07,16.33-.71-1.27-.93-2.4-1.13-3.54-2.25-12.48-4.35-24.99-6.88-37.42-.54-2.65-2.66-4.99-4.06-7.47Z"/>
    <path class="cls-4" d="M186.76,219.02c11.7-2.31,23.46-4.36,35.09-7,8.41-1.91,16.65-4.61,25.36-6.96-.46,5.82-5.16,8.54-9.47,10.9-6.63,3.64-14.06,5.83-20.62,9.56-7.45,4.23-15.78,5.07-24.39,7.64-.43-1.36-.13-2.75.55-4.12,11.6-4.33,22.82-8.67,34.04-13.02-4.47-.37-8.63.42-12.82,1.05-7.2,1.08-14.42,2.05-21.85,2.83-.83-.35-1.45-.47-2.44-.66-1.41-.12-2.43-.17-3.46-.22Z"/>
    <path class="cls-15" d="M164.77,397.18c15.94,6.65,33.23,10.09,48.37,18.66l-.14,2.62c-3.06.88-6.07,2.14-9.2,2.54-5.02.65-10.12.74-15.5.74-.98-1.84-1.27-3.71-2.36-4.77-2.59-2.53-5.7-4.53-8.34-7.02-4.39-4.14-8.57-8.5-12.84-12.76Z"/>
    <path class="cls-2" d="M95.78,355.09c2.65-5.73,5.3-11.46,8.3-17.25,3.78,10.14,7.53,20.25,10.51,30.57,1.64,5.68-.33,7.27-6.49,6.77-1.31-.11-2.61-.27-4.15-1.09-2.88-6.79-5.53-12.9-8.17-19Z"/>
    <path class="cls-2" d="M111.95,325.16c2.45-5.5,5.21-10.85,8.33-16.18,1.39.51,2.45.96,3.46,1.51,8.49,4.62,9.81,13.36,2.93,20.06-2.91,2.83-6.16,1.81-9-.16-2.01-1.4-3.62-3.36-5.72-5.22Z"/>
    <path class="cls-12" d="M311.69,37.78c-6.59-1.23-13.1-2.86-19.61-4.46-3.34-.82-6.7-1.57-10.52-2.4-1.13-3.45-1.79-6.85-1.85-10.38,3.12.1,5.64.32,8.16.53.17,0,.34,0,.96.27.97.42,1.5.56,2.03.69.17,0,.34,0,1,.31,1.32.43,2.15.56,2.98.69,0,0-.09.05.11.29,1.76.73,3.33,1.21,4.91,1.7,6.5,1.68,10.58,5.7,11.83,12.75Z"/>
    <path class="cls-6" d="M186.54,219.15c1.25-.08,2.28-.03,3.68.49-.58,12.63-1.6,24.78-2.46,36.95-.11,1.54.62,3.15.96,4.72-2.35.93-4.7,1.85-7.43,2.75-.51-4.23-.64-8.43-1.16-12.82-.08-3.87.23-7.55.56-12.08,1.43-6.95,2.84-13.06,4.24-19.16.46-.24.91-.48,1.6-.85Z"/>
    <path class="cls-14" d="M10,429.07c3.12-3.15,6.35-6.42,10.05-9.04,9.34-6.61,18.88-12.93,28.51-19.65,1.59.02,3,.34,4.78.75-1.48,2.08-3.04,4.45-5.2,5.99-10.86,7.74-21.88,15.26-33.2,22.92-1.77-.22-3.19-.5-4.93-.97Z"/>
    <path class="cls-14" d="M137.27,394.1c2.23,3.01,4.03,5.93,5.84,8.85,4.86,7.82,9.72,15.64,14.58,23.84-3.18-1.08-6.36-2.52-9.75-4.24-4.3-6.25-8.37-12.26-12.51-18.21-2.45-3.53-5.03-6.98-7.6-10.8,2.97-.06,5.99.21,9.45.56Z"/>
    <path class="cls-2" d="M164.4,397.11c4.63,4.34,8.82,8.69,13.2,12.83,2.64,2.49,5.75,4.49,8.34,7.02,1.09,1.06,1.38,2.93,1.94,4.74-.83.35-1.57.4-2.67.49-5.38-3.45-10.38-6.95-15.41-10.4-7.8-5.35-15.65-10.65-23.44-16.02-.63-.44-1-1.26-1.55-2.23.36-.68.78-1.02,1.74-1.33,7.09,4.32,13.63,8.6,20.3,13.09.34.45.59.65,1,.94.36.22.6.28.84.34-.32-.16-.65-.32-1.09-.69-.32-.47-.57-.67-.92-1.14-2.35-3.11-4.65-5.88-6.95-8.66,1.43.32,2.87.64,4.67,1.03Z"/>
    <path class="cls-21" d="M80.69,232.63c.32-1.89.65-3.37,1-5.59.67-5.08,1.34-9.42,2.01-13.75,1.47.16,2.94.32,4.74,1.08-.53,6.68-1.31,12.77-2.25,18.85-1.43,9.2-4.76,18.55,2.53,26.91-3.35-4.11-6.71-8.22-10.1-12.7.67-5.04,1.38-9.71,2.07-14.79Z"/>
    <path class="cls-14" d="M68.34,404.16c-1.45,7.64-3.07,15.23-5.23,22.65-.36,1.25-3.09,1.82-5,2.91-.77.54-1.26.86-2.02,1.27-3.74-1.36-1.26-3.59-.61-5.06,3.18-7.2,6.67-14.27,10.19-21.73.87-.28,1.6-.22,2.68-.06Z"/>
    <path class="cls-21" d="M189.05,261.15c-.67-1.42-1.4-3.02-1.29-4.57.86-12.17,1.87-24.32,2.84-36.88.61-.28,1.22-.16,2,.63.21,3.35.25,6.02.29,8.68-.3,1.38-.6,2.77-.54,4.32.06,7.06-.25,13.94-.53,21.26-.79,2.42-1.62,4.4-2.77,6.55Z"/>
    <path class="cls-2" d="M197,124.98c-12.57.35-24.8-.44-36.93-2.26-.04-.46-.07-.91-.11-1.37.76-.42,1.54-1.24,2.27-1.2,10.92.6,21.83,1.3,32.74,2.06.71.05,1.37.83,2.32,1.5.16.54.05.86-.3,1.27Z"/>
    <path class="cls-7" d="M95.51,355.32c2.92,5.87,5.56,11.98,8.21,18.47-4.03-.95-8.05-2.29-12.44-3.64,1.08-4.88,2.52-9.74,4.23-14.83Z"/>
    <path class="cls-23" d="M199.42,322.09c-1.83,13.89-3.96,27.77-6.11,41.66-.35,2.26-.77,4.5-.92,7-.54,1.22-1.32,2.18-2.41,3.16,1.52-10.22,3.49-20.43,5.17-30.68,1.1-6.67,1.8-13.41,2.71-20.54.44-.48.85-.54,1.56-.6Z"/>
    <path class="cls-23" d="M207.85,312.57c1.41,2.11,3.54,4.44,4.08,7.1,2.53,12.42,4.63,24.94,6.88,37.42.2,1.13.42,2.26.8,3.79.04.93-.09,1.47-.49,2.12-1.28-5.64-2.09-11.46-3.38-17.16-2.06-9.14-4.44-18.2-6.98-27.55-.51-1.95-.72-3.64-.92-5.71Z"/>
    <path class="cls-25" d="M166.73,405.09c-6.54-4.28-13.08-8.57-19.94-13.03-.02-.67.27-1.16.79-1.82,3.65,1.46,7.07,3.09,10.95,5.05.66.55.91.71,1.2.79,0,0,0,0,0,0,2.3,2.77,4.6,5.54,6.95,8.66.05.34.04.35.04.35Z"/>
    <path class="cls-16" d="M287.67,20.73c-2.32.13-4.84-.09-7.72-.49-.36-.18-.28-.61-.23-.82,2.61.18,5.18.57,7.95,1.31Z"/>
    <path class="cls-16" d="M299.7,24.7c-1.41-.16-2.98-.64-4.77-1.41,1.39.17,3,.63,4.77,1.41Z"/>
    <path class="cls-16" d="M294.7,22.73c-.68.18-1.52.05-2.6-.28.65-.14,1.55-.08,2.6.28Z"/>
    <path class="cls-16" d="M290.74,21.76c-.4.14-.94,0-1.66-.32.38-.12.96-.04,1.66.32Z"/>
    <path class="cls-2" d="M159.66,395.85c-.21.15-.46,0-.81-.39.23-.28.52-.17.81.39Z"/>
    <path class="cls-5" d="M102.14,70.16c-4.82-.99-9.28-1.76-13.5-3.23-10.22-3.57-17.47-10.19-20.05-21.09-2.58-10.9,1.09-16.84,11.99-19.6,1.45-.37,2.91-.72,4.73-1.2,5.19-.09,10.02-.28,14.82.02,10.92.69,20.22,5.12,27.54,13.24,2.18,2.41,3.85,5.46,5.11,8.49,4.19,10.11.15,19.28-10.41,21.81-6.34,1.52-13.16,1.05-20.23,1.57M118.84,59.17c5.96-4.31,5.69-5.92-.01-10.11-11.23-8.25-24.19-8.47-37.19-9-4.24-.17-7.16,1.03-7.79,5.69-.65,4.83,1.39,8.11,6.22,9.19,3.57.8,7.2,1.37,10.84,1.77,9.05.99,18.12,1.83,27.93,2.45Z"/>
    <path class="cls-5" d="M272.15,56.76c5.95,8.89,3.23,20.02-6.6,23.95-15.64,6.27-31.01,3.64-44.72-5.38-9.25-6.09-7.5-18.83,2.44-24.87,14.24-8.65,36.68-5.88,48.88,6.3M231.19,57.54c-3.3,2.53-2.94,6.18-1.44,8.98.8,1.5,4.12,2.18,6.35,2.29,7.62.37,15.25.4,22.88.4,2.63,0,5.33-.18,7.86-.83,3.72-.96,4.09-4.37,3.49-7.25-.32-1.52-2.61-3.7-4.06-3.74-11.42-.32-22.85-.19-35.08.15Z"/>
    <path class="cls-11" d="M117.83,238.02c-.39,3.9-1.11,7.81-1.08,11.71.04,5.75.62,11.5.94,17.7-1.32,3.49-2.83,6.46-3.86,9.59-2.43,7.4-4.64,14.88-7.46,22.66-4.17-1.02-7.82-2.37-11.46-3.73-.42-5.52-1.01-11.04-1.22-16.57-.2-5.44,0-10.89.13-17.17,1.41-9.58,2.72-18.31,4.39-26.96,6.7.35,13.03.61,19.42,1.19.11.74.15,1.17.2,1.59Z"/>
    <path class="cls-2" d="M94.81,296.3c3.73,1,7.38,2.36,11.38,3.71-1.59,4.7-3.55,9.4-6.11,14.19-2.09-.4-3.58-.89-5.06-1.38-.88-5.37-2.87-10.73-.21-16.52Z"/>
    <path class="cls-7" d="M75.58,325.27c2.45-.04,4.9-.08,7.85.25,2.37,4.08,4.25,7.78,6.12,11.48-1.7,3.29-3.41,6.57-5.79,9.82-1.16-2.91-1.21-5.94-2.23-8.6-1.1-2.86-3.11-5.38-4.97-8.31-.5-1.72-.74-3.18-.98-4.64Z"/>
    <path class="cls-11" d="M76.82,330.18c1.61,2.67,3.62,5.18,4.72,8.04,1.02,2.66,1.07,5.69,1.91,8.72-1.33,3.54-3.02,6.91-4.77,10.65-1.03-5.93-1.99-12.24-2.94-19.41.37-3.25.73-5.63,1.08-8.01Z"/>
    <path class="cls-23" d="M89.72,336.7c-2.04-3.39-3.91-7.1-5.83-11.14,3.66-.94,8.13.71,10.89-4.11.89.06,1.35.34,1.82.62-2.24,4.78-4.48,9.55-6.88,14.63Z"/>
    <path class="cls-7" d="M96.86,321.83c-.73-.05-1.19-.33-1.91-.71-.2-2.53-.15-4.96,0-7.85,1.57.03,3.06.52,4.92,1.18-.67,2.5-1.7,4.82-3,7.38Z"/>
    <path class="cls-17" d="M97.85,235.15c-1.31,8.74-2.62,17.47-4.1,26.59-.95.39-1.72.41-2.96.2-.64-.46-.85-.63-1.11-.76,0,0,0-.03-.12-.26-.29-.52-.54-.72-.86-.84,0,0,.02.02.02.03-7.29-8.35-3.97-17.7-2.54-26.9.94-6.07,1.73-12.17,2.59-18.69,4.24.36,8.46,1.16,12.8,2.69-.84,5.07-1.8,9.41-3.01,13.97-.4,1.47-.57,2.71-.73,3.96Z"/>
    <path class="cls-23" d="M58.76,357.05c-.33-10.31-.67-20.63-.96-31.4.42-.46.81-.46,1.48-.4.64,10.35,1,20.65,1.06,31.38-.72.43-1.15.43-1.58.42Z"/>
    <path class="cls-23" d="M76.56,329.91c-.1,2.65-.45,5.03-.88,7.83-.48.92-.89,1.43-2.17,2.99.33-5.65.6-10.23,1.08-15.16.21-.35.6-.35.8-.32.43,1.48.67,2.94,1.17,4.66Z"/>
    <path class="cls-21" d="M88.8,260.3c.22-.1.47.1.74.61-.21.1-.46-.11-.74-.61Z"/>
    <path class="cls-21" d="M89.77,261.36c.16-.06.37.12.63.54-.16.05-.36-.13-.63-.54Z"/>
    <path class="cls-17" d="M175.66,239.01c-14.99-.25-29.99-.5-45.53-1.15-3.51-6.8-6.47-13.2-9.43-19.6,19.77.57,39.53,1.15,59.7,2.19-1.31,6.5-3.03,12.53-4.74,18.56Z"/>
    <path class="cls-11" d="M83.28,213.21c-.25,4.41-.92,8.74-1.67,13.48-10.47-2.93-21.09-5.67-31.17-9.76-14.52-5.89-27.84-13.95-37.74-26.54-1.55-1.97-2.22-4.65-3.61-7.18.19-.42.96-1,1.16-.85,4.96,3.79,9.86,7.65,15.25,11.95,3.07,1.51,5.67,2.57,8.27,3.63,0,0,.38.16.75.44.98.36,1.59.46,2.2.55,0,0,.43.16.84.48,2,.82,3.6,1.31,5.19,1.81,0,0-.01-.11.12.2,1.05.45,1.98.59,2.9.72,0,0-.02-.06.09.22.69.38,1.26.47,1.84.56.16.05.32.1.82.39.34.23.67.57.67.57l.47-.02c11.08,3.09,22.15,6.18,33.65,9.34Z"/>
    <path class="cls-11" d="M98.82,230.97c.96-4.34,1.92-8.68,2.96-13.41,3.42.13,6.76.66,10.82,1.44,1.85,4.82,2.99,9.38,3.72,13.85-6.1-.69-11.8-1.28-17.49-1.88Z"/>
    <path class="cls-10" d="M116.72,232.94c-1.14-4.56-2.27-9.12-3.76-13.84,2.09-.44,4.53-.72,7.35-.93,3.35,6.48,6.31,12.88,9.35,19.65-3.62.35-7.32.33-11.42.25-.45-.48-.5-.91-.5-1.9-.31-1.46-.66-2.35-1.02-3.23Z"/>
    <path class="cls-12" d="M176.07,239.1c1.31-6.12,3.02-12.15,4.81-18.57,1.14-.47,2.2-.54,3.66-.58-1,6.15-2.41,12.26-3.86,18.76-1.43.42-2.81.45-4.61.38Z"/>
    <path class="cls-4" d="M33.66,197.62c-2.5-.73-5.1-1.79-7.85-3.18,2.48.73,5.11,1.79,7.85,3.18Z"/>
    <path class="cls-4" d="M42.56,200.89c-1.43-.17-3.02-.67-4.8-1.49,1.42.17,3.03.67,4.8,1.49Z"/>
    <path class="cls-4" d="M45.5,201.91c-.68.1-1.6-.03-2.71-.47.7-.12,1.59.05,2.71.47Z"/>
    <path class="cls-4" d="M47.48,202.73c-.38.11-.96.02-1.68-.34.4-.13.94,0,1.68.34Z"/>
    <path class="cls-4" d="M36.48,198.73c-.39.11-1,.02-1.77-.35.41-.14.98,0,1.77.35Z"/>
    <path class="cls-4" d="M49.48,203.74c.15.14-.32.16-.32.16,0,0-.33-.34-.41-.56.11-.02.33.14.73.4Z"/>
    <path class="cls-25" d="M58.75,357.47c.43-.42.86-.42,1.6-.43.86,5.02,1.4,10.05,1.95,15.08-.41.07-.83.15-1.24.22-.77-4.82-1.55-9.63-2.31-14.87Z"/>
    <path class="cls-11" d="M193.28,229.04c-.42-2.68-.47-5.35-.45-8.46,7.26-1.46,14.48-2.43,21.68-3.51,4.19-.63,8.35-1.42,12.82-1.05-11.22,4.34-22.44,8.69-34.04,13.02Z"/>
    <path class="cls-25" d="M167.73,406.09c.32.16.65.32.97.48-.24-.06-.48-.12-.84-.33-.12-.16-.12-.15-.12-.15Z"/>
    <path class="cls-25" d="M166.74,405.08c.31.13.56.33.87.8.12.21.12.2.13.2-.29-.14-.54-.33-.88-.79-.13-.2-.12-.21-.12-.21Z"/>
    <path class="cls-3" d="M118.47,59.32c-9.44-.76-18.5-1.6-27.55-2.59-3.64-.4-7.27-.97-10.84-1.77-4.84-1.09-6.88-4.36-6.22-9.19.63-4.66,3.54-5.86,7.79-5.69,13,.53,25.96.75,37.19,9,5.7,4.19,5.98,5.8-.36,10.25Z"/>
    <path class="cls-1" d="M231.58,57.36c11.83-.17,23.26-.29,34.68.03,1.45.04,3.75,2.22,4.06,3.74.6,2.89.23,6.29-3.49,7.25-2.53.65-5.23.83-7.86.83-7.63,0-15.27-.03-22.88-.4-2.23-.11-5.55-.79-6.35-2.29-1.49-2.8-1.86-6.45,1.84-9.16Z"/>
    <path class="cls-20" d="M116.31,232.85c.76.98,1.11,1.87,1.36,3.01-6.44,0-12.77-.27-19.47-.62-.2-1.34-.04-2.58.36-4.05,5.94.38,11.64.97,17.74,1.66Z"/>
  </g>
</svg>