<svg width="101" height="29" viewBox="0 0 101 29" fill="none" xmlns="http://www.w3.org/2000/svg">
<g filter="url(#filter0_i_1_486)">
<path d="M25.2846 21C25.1679 21 25.1096 20.9417 25.1096 20.825V11.844C25.1096 11.7273 25.1679 11.669 25.2846 11.669H30.1636C30.2802 11.669 30.3386 11.7273 30.3386 11.844V13.356C30.3386 13.4727 30.2802 13.531 30.1636 13.531H27.4406V15.519H29.9256C30.0422 15.519 30.1006 15.5773 30.1006 15.694V16.975C30.1006 17.0917 30.0422 17.15 29.9256 17.15H27.4406V19.131H30.1636C30.2802 19.131 30.3386 19.1893 30.3386 19.306V20.825C30.3386 20.9417 30.2802 21 30.1636 21H25.2846ZM32.1049 21C31.9882 21 31.9299 20.9417 31.9299 20.825V11.844C31.9299 11.7273 31.9882 11.669 32.1049 11.669H33.9739C34.0905 11.669 34.1489 11.7273 34.1489 11.844V20.825C34.1489 20.9417 34.0905 21 33.9739 21H32.1049ZM35.8666 21C35.7499 21 35.6916 20.9417 35.6916 20.825V13.475C35.6916 13.3583 35.7499 13.3 35.8666 13.3H37.7286C37.8453 13.3 37.9036 13.3583 37.9036 13.475V20.825C37.9036 20.9417 37.8453 21 37.7286 21H35.8666ZM35.8316 12.719C35.7383 12.719 35.6916 12.6723 35.6916 12.579V11.69C35.6916 11.5967 35.7383 11.55 35.8316 11.55H37.7776C37.8616 11.55 37.9036 11.5967 37.9036 11.69V12.579C37.9036 12.6723 37.8616 12.719 37.7776 12.719H35.8316ZM39.6874 21C39.5707 21 39.5124 20.9417 39.5124 20.825V18.165C39.5124 18.123 39.5147 18.0857 39.5194 18.053C39.5287 18.0157 39.5497 17.983 39.5824 17.955L40.4924 17.22V16.975L39.5544 16.226C39.5217 16.198 39.5007 16.1677 39.4914 16.135C39.4867 16.0977 39.4844 16.058 39.4844 16.016V13.475C39.4844 13.3583 39.5427 13.3 39.6594 13.3H41.5284C41.6451 13.3 41.7034 13.3583 41.7034 13.475V16.226H42.9774V13.475C42.9774 13.3583 43.0357 13.3 43.1524 13.3H45.0144C45.1311 13.3 45.1894 13.3583 45.1894 13.475V16.016C45.1894 16.058 45.1871 16.0977 45.1824 16.135C45.1777 16.1677 45.1567 16.198 45.1194 16.226L44.1884 16.975V17.22L45.1474 17.955C45.1847 17.9783 45.2057 18.0087 45.2104 18.046C45.2151 18.0833 45.2174 18.123 45.2174 18.165V20.825C45.2174 20.9417 45.1591 21 45.0424 21H43.1734C43.0567 21 42.9984 20.9417 42.9984 20.825V17.955H41.7244V20.825C41.7244 20.9417 41.6661 21 41.5494 21H39.6874ZM47.0228 21C46.9062 21 46.8478 20.9417 46.8478 20.825V13.475C46.8478 13.3583 46.9062 13.3 47.0228 13.3H48.8848C49.0015 13.3 49.0598 13.3583 49.0598 13.475V20.825C49.0598 20.9417 49.0015 21 48.8848 21H47.0228ZM46.9878 12.719C46.8945 12.719 46.8478 12.6723 46.8478 12.579V11.69C46.8478 11.5967 46.8945 11.55 46.9878 11.55H48.9338C49.0178 11.55 49.0598 11.5967 49.0598 11.69V12.579C49.0598 12.6723 49.0178 12.719 48.9338 12.719H46.9878ZM50.8646 21C50.748 21 50.6896 20.9417 50.6896 20.825V13.475C50.6896 13.3583 50.748 13.3 50.8646 13.3H51.9286C52.0173 13.3 52.0943 13.3397 52.1596 13.419L52.8456 14.21L53.6086 13.384C53.66 13.328 53.7253 13.3 53.8046 13.3H54.5606C54.6773 13.3 54.7356 13.3583 54.7356 13.475V14.98C54.7356 15.0547 54.731 15.106 54.7216 15.134C54.7123 15.1573 54.6866 15.183 54.6446 15.211L52.9086 16.492V20.825C52.9086 20.9417 52.8503 21 52.7336 21H50.8646Z" fill="white"/>
</g>
<path d="M61.6894 20C61.6227 20 61.5894 19.9667 61.5894 19.9V19.1C61.5894 19.0333 61.6227 19 61.6894 19H63.3694V17.8H62.0214C61.9547 17.8 61.9214 17.7667 61.9214 17.7V16.9C61.9214 16.8333 61.9547 16.8 62.0214 16.8H63.3694V15.732H61.6894C61.6227 15.732 61.5894 15.6987 61.5894 15.632V14.768C61.5894 14.7013 61.6227 14.668 61.6894 14.668H63.6774C63.7387 14.668 63.7921 14.6893 63.8374 14.732L64.6374 15.532C64.6801 15.5773 64.7014 15.6307 64.7014 15.692V16.492C64.7014 16.548 64.6881 16.588 64.6614 16.612L64.1414 17.208V17.46L64.6614 18.052C64.6881 18.0787 64.7014 18.1187 64.7014 18.172V18.972C64.7014 19.036 64.6801 19.0893 64.6374 19.132L63.8374 19.932C63.7921 19.9773 63.7387 20 63.6774 20H61.6894ZM67.9597 20C67.8931 20 67.8597 19.9667 67.8597 19.9V18.332H65.7597C65.6931 18.332 65.6597 18.2987 65.6597 18.232V14.768C65.6597 14.7013 65.6931 14.668 65.7597 14.668H66.8917C66.9584 14.668 66.9917 14.7013 66.9917 14.768V17.268H67.8597V14.768C67.8597 14.7013 67.8931 14.668 67.9597 14.668H69.0917C69.1584 14.668 69.1917 14.7013 69.1917 14.768V19.9C69.1917 19.9667 69.1584 20 69.0917 20H67.9597ZM69.9399 20C69.8732 20 69.8399 19.9667 69.8399 19.9V19.1C69.8399 19.0333 69.8732 19 69.9399 19H71.7239V17.868H69.9399C69.8732 17.868 69.8399 17.8347 69.8399 17.768L69.8439 14.768C69.8439 14.7013 69.8772 14.668 69.9439 14.668H72.9599C73.0266 14.668 73.0599 14.7013 73.0599 14.768V15.568C73.0599 15.6347 73.0266 15.668 72.9599 15.668H71.1799V16.8H72.9599C73.0266 16.8 73.0599 16.8333 73.0599 16.9V18.98C73.0599 19.028 73.0439 19.0707 73.0119 19.108L72.1639 19.952C72.1346 19.984 72.0932 20 72.0399 20H69.9399ZM73.4866 20.668C73.4093 20.668 73.3799 20.632 73.3986 20.56L74.9666 14.092C74.9799 14.0307 75.0159 14 75.0746 14H76.0946C76.1693 14 76.1973 14.036 76.1786 14.108L74.6146 20.572C74.5986 20.636 74.5626 20.668 74.5066 20.668H73.4866ZM76.6196 20C76.5529 20 76.5196 19.9667 76.5196 19.9V19.1C76.5196 19.0333 76.5529 19 76.6196 19H78.4036V17.868H76.6196C76.5529 17.868 76.5196 17.8347 76.5196 17.768L76.5236 14.768C76.5236 14.7013 76.5569 14.668 76.6236 14.668H79.6396C79.7063 14.668 79.7396 14.7013 79.7396 14.768V15.568C79.7396 15.6347 79.7063 15.668 79.6396 15.668H77.8596V16.8H79.6396C79.7063 16.8 79.7396 16.8333 79.7396 16.9V18.98C79.7396 19.028 79.7236 19.0707 79.6916 19.108L78.8436 19.952C78.8143 19.984 78.7729 20 78.7196 20H76.6196ZM80.7783 20C80.6263 20 80.5223 19.9693 80.4663 19.908C80.4129 19.844 80.3863 19.752 80.3863 19.632V15.04C80.3863 14.92 80.4129 14.8293 80.4663 14.768C80.5223 14.704 80.6263 14.672 80.7783 14.672L83.5263 14.66C83.6809 14.66 83.7849 14.692 83.8383 14.756C83.8916 14.8173 83.9183 14.908 83.9183 15.028V19.632C83.9183 19.752 83.8916 19.844 83.8383 19.908C83.7849 19.9693 83.6809 20 83.5263 20H80.7783ZM81.7183 19H82.5863V15.66H81.7183V19ZM85.2705 20C85.1185 20 85.0145 19.9693 84.9585 19.908C84.9051 19.844 84.8785 19.752 84.8785 19.632V15.04C84.8785 14.92 84.9051 14.8293 84.9585 14.768C85.0145 14.704 85.1185 14.672 85.2705 14.672L88.0185 14.66C88.1731 14.66 88.2771 14.692 88.3305 14.756C88.3838 14.8173 88.4105 14.908 88.4105 15.028V19.632C88.4105 19.752 88.3838 19.844 88.3305 19.908C88.2771 19.9693 88.1731 20 88.0185 20H85.2705ZM86.2105 19H87.0785V15.66H86.2105V19Z" fill="white"/>
<path d="M12.0548 5.70778C13.5398 8.98202 17.5118 10.3506 17.1554 14.6176C16.7397 19.6297 13.1905 20.8918 11.2155 20.9811C9.6277 21.1043 8.05219 20.6212 6.80633 19.6292C5.56048 18.6372 4.73684 17.2098 4.50133 15.6348C3.35349 10.3184 8.37984 2.1657 11.2755 1C11.1801 2.60778 11.4464 4.2165 12.0548 5.70778ZM11.9362 19.1769C11.9455 19.1372 11.9467 19.0961 11.9397 19.0559C11.9327 19.0158 11.9177 18.9775 11.8955 18.9433C11.4719 18.1576 7.74556 17.7683 6.962 17.6919C7.31048 18.0495 7.70289 18.3615 8.12984 18.6204C8.74513 18.9966 9.42786 19.2492 10.1398 19.364C10.7134 19.4504 11.8169 19.5233 11.9369 19.1761L11.9362 19.1769Z" fill="#FCBD1A"/>
<g opacity="0.25">
<path d="M12.3747 7.15562C15.5675 10.6006 16.9782 10.712 16.8297 14.6398C16.6518 19.2654 13.5847 20.4904 11.7883 20.654C8.78836 21.0475 6.43482 19.5626 5.8184 16.5926C4.56342 11.7591 8.6105 3.87352 11.224 2.68568C11.2895 4.23668 11.6842 5.75599 12.3819 7.14276L12.3747 7.15562Z" fill="white"/>
</g>
<g opacity="0.75" filter="url(#filter1_d_1_486)">
<path d="M11.7583 6.65777C13.8897 9.57129 16.7111 9.35701 17.1975 13.6005C17.2646 18.5454 14.6261 20.2311 12.7426 20.7061C9.52834 21.6197 6.66124 20.2454 5.53268 17.1348C3.36486 12.1348 7.42623 3.91067 10.0398 2.19569C10.2644 3.78842 10.8428 5.31064 11.7326 6.65063L11.7583 6.65777Z" fill="url(#paint0_linear_1_486)"/>
</g>
<g filter="url(#filter2_d_1_486)">
<path d="M25 3H96" stroke="white" stroke-width="2" stroke-linecap="round"/>
</g>
<g filter="url(#filter3_i_1_486)">
<path d="M26 3H64.0033" stroke="url(#paint1_linear_1_486)" stroke-width="5" stroke-linecap="round"/>
</g>
<defs>
<filter id="filter0_i_1_486" x="25.1096" y="11.55" width="29.6261" height="10.25" filterUnits="userSpaceOnUse" color-interpolation-filters="sRGB">
<feFlood flood-opacity="0" result="BackgroundImageFix"/>
<feBlend mode="normal" in="SourceGraphic" in2="BackgroundImageFix" result="shape"/>
<feColorMatrix in="SourceAlpha" type="matrix" values="0 0 0 0 0 0 0 0 0 0 0 0 0 0 0 0 0 0 127 0" result="hardAlpha"/>
<feOffset dy="1"/>
<feGaussianBlur stdDeviation="0.4"/>
<feComposite in2="hardAlpha" operator="arithmetic" k2="-1" k3="1"/>
<feColorMatrix type="matrix" values="0 0 0 0 0 0 0 0 0 0 0 0 0 0 0 0 0 0 0.25 0"/>
<feBlend mode="normal" in2="shape" result="effect1_innerShadow_1_486"/>
</filter>
<filter id="filter1_d_1_486" x="0.91803" y="2.19569" width="20.2807" height="26.7886" filterUnits="userSpaceOnUse" color-interpolation-filters="sRGB">
<feFlood flood-opacity="0" result="BackgroundImageFix"/>
<feColorMatrix in="SourceAlpha" type="matrix" values="0 0 0 0 0 0 0 0 0 0 0 0 0 0 0 0 0 0 127 0" result="hardAlpha"/>
<feOffset dy="4"/>
<feGaussianBlur stdDeviation="2"/>
<feComposite in2="hardAlpha" operator="out"/>
<feColorMatrix type="matrix" values="0 0 0 0 0 0 0 0 0 0 0 0 0 0 0 0 0 0 0.25 0"/>
<feBlend mode="normal" in2="BackgroundImageFix" result="effect1_dropShadow_1_486"/>
<feBlend mode="normal" in="SourceGraphic" in2="effect1_dropShadow_1_486" result="shape"/>
</filter>
<filter id="filter2_d_1_486" x="20" y="2" width="81" height="10" filterUnits="userSpaceOnUse" color-interpolation-filters="sRGB">
<feFlood flood-opacity="0" result="BackgroundImageFix"/>
<feColorMatrix in="SourceAlpha" type="matrix" values="0 0 0 0 0 0 0 0 0 0 0 0 0 0 0 0 0 0 127 0" result="hardAlpha"/>
<feOffset dy="4"/>
<feGaussianBlur stdDeviation="2"/>
<feComposite in2="hardAlpha" operator="out"/>
<feColorMatrix type="matrix" values="0 0 0 0 0 0 0 0 0 0 0 0 0 0 0 0 0 0 0.25 0"/>
<feBlend mode="normal" in2="BackgroundImageFix" result="effect1_dropShadow_1_486"/>
<feBlend mode="normal" in="SourceGraphic" in2="effect1_dropShadow_1_486" result="shape"/>
</filter>
<filter id="filter3_i_1_486" x="23.5" y="0.5" width="43.0033" height="5" filterUnits="userSpaceOnUse" color-interpolation-filters="sRGB">
<feFlood flood-opacity="0" result="BackgroundImageFix"/>
<feBlend mode="normal" in="SourceGraphic" in2="BackgroundImageFix" result="shape"/>
<feColorMatrix in="SourceAlpha" type="matrix" values="0 0 0 0 0 0 0 0 0 0 0 0 0 0 0 0 0 0 127 0" result="hardAlpha"/>
<feOffset dy="-1"/>
<feComposite in2="hardAlpha" operator="arithmetic" k2="-1" k3="1"/>
<feColorMatrix type="matrix" values="0 0 0 0 1 0 0 0 0 0.601093 0 0 0 0 0 0 0 0 1 0"/>
<feBlend mode="normal" in2="shape" result="effect1_innerShadow_1_486"/>
</filter>
<linearGradient id="paint0_linear_1_486" x1="11.6612" y1="20.7118" x2="10.0355" y2="2.42426" gradientUnits="userSpaceOnUse">
<stop stop-color="#FFD66C"/>
<stop offset="0.01" stop-color="#FFCE72"/>
<stop offset="0.09" stop-color="#FFE5A1"/>
<stop offset="0.2" stop-color="#FFD66C"/>
<stop offset="0.32" stop-color="#FDDF41"/>
<stop offset="0.5" stop-color="#FBB500"/>
<stop offset="1" stop-color="#FFD66C"/>
</linearGradient>
<linearGradient id="paint1_linear_1_486" x1="26" y1="3.5" x2="64.0033" y2="3.5" gradientUnits="userSpaceOnUse">
<stop stop-color="#FBB500"/>
<stop offset="1" stop-color="#FFE5A1"/>
</linearGradient>
</defs>
</svg>
