<svg width="29" height="29" viewBox="0 0 29 29" fill="none" xmlns="http://www.w3.org/2000/svg">
<g clip-path="url(#clip0_31_1263)">
<g filter="url(#filter0_d_31_1263)">
<path d="M15.5103 12.9867C18.9489 12.4287 21.284 9.18889 20.7261 5.75033C20.1681 2.31177 16.9283 -0.0234092 13.4897 0.534563C10.0511 1.09254 7.71597 4.33236 8.27394 7.77092C8.83191 11.2095 12.0717 13.5447 15.5103 12.9867Z" fill="white"/>
</g>
<g filter="url(#filter1_d_31_1263)">
<path d="M0.715919 21.7953C0.715919 25.52 3.74281 28.5469 7.46749 28.5469H21.5325C25.2572 28.5469 28.2841 25.52 28.2841 21.7953C28.2841 18.0706 25.2572 15.0437 21.5325 15.0437H7.46749C3.74281 15.0437 0.715919 18.0706 0.715919 21.7953Z" fill="white"/>
</g>
</g>
<defs>
<filter id="filter0_d_31_1263" x="4.19155" y="-3.54782" width="20.6169" height="20.6169" filterUnits="userSpaceOnUse" color-interpolation-filters="sRGB">
<feFlood flood-opacity="0" result="BackgroundImageFix"/>
<feColorMatrix in="SourceAlpha" type="matrix" values="0 0 0 0 0 0 0 0 0 0 0 0 0 0 0 0 0 0 127 0" result="hardAlpha"/>
<feOffset/>
<feGaussianBlur stdDeviation="2"/>
<feComposite in2="hardAlpha" operator="out"/>
<feColorMatrix type="matrix" values="0 0 0 0 0 0 0 0 0 0 0 0 0 0 0 0 0 0 0.25 0"/>
<feBlend mode="normal" in2="BackgroundImageFix" result="effect1_dropShadow_31_1263"/>
<feBlend mode="normal" in="SourceGraphic" in2="effect1_dropShadow_31_1263" result="shape"/>
</filter>
<filter id="filter1_d_31_1263" x="-3.28408" y="11.0437" width="35.5682" height="21.5031" filterUnits="userSpaceOnUse" color-interpolation-filters="sRGB">
<feFlood flood-opacity="0" result="BackgroundImageFix"/>
<feColorMatrix in="SourceAlpha" type="matrix" values="0 0 0 0 0 0 0 0 0 0 0 0 0 0 0 0 0 0 127 0" result="hardAlpha"/>
<feOffset/>
<feGaussianBlur stdDeviation="2"/>
<feComposite in2="hardAlpha" operator="out"/>
<feColorMatrix type="matrix" values="0 0 0 0 0 0 0 0 0 0 0 0 0 0 0 0 0 0 0.25 0"/>
<feBlend mode="normal" in2="BackgroundImageFix" result="effect1_dropShadow_31_1263"/>
<feBlend mode="normal" in="SourceGraphic" in2="effect1_dropShadow_31_1263" result="shape"/>
</filter>
<clipPath id="clip0_31_1263">
<rect width="29" height="29" fill="white"/>
</clipPath>
</defs>
</svg>
