<svg width="36" height="36" viewBox="0 0 36 36" fill="none" xmlns="http://www.w3.org/2000/svg">
<g clip-path="url(#clip0_31_1252)">
<g filter="url(#filter0_d_31_1252)">
<path d="M29.5714 19.9286V29.5714C29.5714 29.9196 29.4442 30.221 29.1897 30.4754C28.9353 30.7299 28.6339 30.8571 28.2857 30.8571H20.5714V23.1428H15.4286V30.8571H7.71428C7.36607 30.8571 7.06473 30.7299 6.81027 30.4754C6.5558 30.221 6.42857 29.9196 6.42857 29.5714V19.9286C6.42857 19.9152 6.43192 19.8951 6.43861 19.8683C6.44531 19.8415 6.44866 19.8214 6.44866 19.808L18 10.2857L29.5513 19.808C29.5647 19.8348 29.5714 19.875 29.5714 19.9286ZM34.0513 18.5424L32.8058 20.029C32.6987 20.1495 32.558 20.2232 32.3839 20.25H32.3237C32.1496 20.25 32.0089 20.2031 31.9018 20.1094L18 8.51785L4.09821 20.1094C3.9375 20.2165 3.77678 20.2634 3.61607 20.25C3.44196 20.2232 3.30134 20.1495 3.19419 20.029L1.94866 18.5424C1.84152 18.4085 1.79464 18.2511 1.80803 18.0703C1.82143 17.8895 1.89509 17.7455 2.02902 17.6384L16.4732 5.6049C16.9018 5.25669 17.4107 5.08258 18 5.08258C18.5893 5.08258 19.0982 5.25669 19.5268 5.6049L24.4286 9.70312V5.78571C24.4286 5.59821 24.4888 5.44419 24.6094 5.32365C24.7299 5.20312 24.8839 5.14285 25.0714 5.14285H28.9286C29.1161 5.14285 29.2701 5.20312 29.3906 5.32365C29.5112 5.44419 29.5714 5.59821 29.5714 5.78571V13.9821L33.971 17.6384C34.1049 17.7455 34.1786 17.8895 34.192 18.0703C34.2054 18.2511 34.1585 18.4085 34.0513 18.5424Z" fill="white"/>
</g>
</g>
<defs>
<filter id="filter0_d_31_1252" x="-2.1942" y="1.08258" width="40.3884" height="33.7746" filterUnits="userSpaceOnUse" color-interpolation-filters="sRGB">
<feFlood flood-opacity="0" result="BackgroundImageFix"/>
<feColorMatrix in="SourceAlpha" type="matrix" values="0 0 0 0 0 0 0 0 0 0 0 0 0 0 0 0 0 0 127 0" result="hardAlpha"/>
<feOffset/>
<feGaussianBlur stdDeviation="2"/>
<feComposite in2="hardAlpha" operator="out"/>
<feColorMatrix type="matrix" values="0 0 0 0 0 0 0 0 0 0 0 0 0 0 0 0 0 0 0.25 0"/>
<feBlend mode="normal" in2="BackgroundImageFix" result="effect1_dropShadow_31_1252"/>
<feBlend mode="normal" in="SourceGraphic" in2="effect1_dropShadow_31_1252" result="shape"/>
</filter>
<clipPath id="clip0_31_1252">
<rect width="36" height="36" fill="white"/>
</clipPath>
</defs>
</svg>
