<svg width="33" height="8" viewBox="0 0 33 8" fill="none" xmlns="http://www.w3.org/2000/svg">
<path d="M1.13531 8C1.03531 8 0.985313 7.95 0.985313 7.85V6.722C0.985313 6.67 0.987313 6.628 0.991313 6.596C0.999313 6.564 1.02331 6.538 1.06331 6.518L2.63531 5.798V4.73L1.08731 3.77C1.01931 3.73 0.985313 3.67 0.985313 3.59V1.388C0.985313 1.324 0.989313 1.278 0.997313 1.25C1.00531 1.218 1.03531 1.184 1.08731 1.148L2.66531 0.0799997C2.70531 0.0559995 2.74131 0.0379994 2.77331 0.0259993C2.80931 0.00999951 2.85331 0.00199962 2.90531 0.00199962H4.52531C4.62531 0.00199962 4.67531 0.0519996 4.67531 0.151999V1.172C4.67531 1.26 4.64531 1.32 4.58531 1.352L3.01331 2V3.11L4.58531 4.01C4.64531 4.038 4.67531 4.102 4.67531 4.202V6.812C4.67531 6.844 4.66931 6.878 4.65731 6.914C4.64931 6.95 4.62931 6.976 4.59731 6.992L2.71331 7.928C2.68931 7.94 2.65931 7.956 2.62331 7.976C2.59131 7.992 2.55931 8 2.52731 8H1.13531ZM6.08484 8C5.98484 8 5.93484 7.95 5.93484 7.85V0.151999C5.93484 0.0519996 5.98484 0.00199962 6.08484 0.00199962H7.68684C7.78684 0.00199962 7.83684 0.0519996 7.83684 0.151999V1.4H9.29484C9.38684 1.4 9.46684 1.434 9.53484 1.502L10.7348 2.702C10.8028 2.766 10.8368 2.846 10.8368 2.942V7.85C10.8368 7.95 10.7868 8 10.6868 8H9.08484C8.98484 8 8.93484 7.95 8.93484 7.85V3.152C8.93484 2.984 8.85084 2.9 8.68284 2.9H7.83684V7.85C7.83684 7.95 7.78684 8 7.68684 8H6.08484ZM13.7395 8C13.6475 8 13.5675 7.966 13.4995 7.898L12.2995 6.698C12.2315 6.634 12.1975 6.554 12.1975 6.458V2.942C12.1975 2.846 12.2315 2.766 12.2995 2.702L13.4995 1.502C13.5675 1.434 13.6475 1.4 13.7395 1.4H16.9495C17.0495 1.4 17.0995 1.45 17.0995 1.55V7.85C17.0995 7.95 17.0495 8 16.9495 8H15.7015C15.6495 8 15.6095 7.99 15.5815 7.97C15.5575 7.95 15.5295 7.926 15.4975 7.898L15.1975 7.598L14.8975 7.898C14.8335 7.966 14.7535 8 14.6575 8H13.7395ZM14.4415 6.602H14.8615C14.9895 6.602 15.0775 6.576 15.1255 6.524C15.1735 6.472 15.1975 6.38 15.1975 6.248V2.798H14.4415C14.3095 2.798 14.2195 2.824 14.1715 2.876C14.1235 2.928 14.0995 3.02 14.0995 3.152V6.248C14.0995 6.38 14.1235 6.472 14.1715 6.524C14.2195 6.576 14.3095 6.602 14.4415 6.602ZM18.6473 8C18.5473 8 18.4973 7.95 18.4973 7.85V1.55C18.4973 1.45 18.5473 1.4 18.6473 1.4H19.5593C19.6353 1.4 19.7013 1.434 19.7573 1.502L20.3453 2.18L20.9993 1.472C21.0433 1.424 21.0993 1.4 21.1673 1.4H21.8153C21.9153 1.4 21.9653 1.45 21.9653 1.55V2.84C21.9653 2.904 21.9613 2.948 21.9533 2.972C21.9453 2.992 21.9233 3.014 21.8873 3.038L20.3993 4.136V7.85C20.3993 7.95 20.3493 8 20.2493 8H18.6473ZM24.1809 8C24.0889 8 24.0089 7.966 23.9409 7.898L22.7409 6.698C22.6729 6.634 22.6389 6.554 22.6389 6.458V2.942C22.6389 2.846 22.6729 2.766 22.7409 2.702L23.9409 1.502C24.0089 1.434 24.0889 1.4 24.1809 1.4H25.0989C25.1949 1.4 25.2749 1.434 25.3389 1.502L25.6389 1.802V0.151999C25.6389 0.0519996 25.6889 0.00199962 25.7889 0.00199962H27.3909C27.4909 0.00199962 27.5409 0.0519996 27.5409 0.151999V7.85C27.5409 7.95 27.4909 8 27.3909 8H26.1429C26.0909 8 26.0509 7.99 26.0229 7.97C25.9989 7.95 25.9709 7.926 25.9389 7.898L25.6389 7.598L25.3389 7.898C25.2749 7.966 25.1949 8 25.0989 8H24.1809ZM24.8829 6.602H25.3029C25.4309 6.602 25.5189 6.576 25.5669 6.524C25.6149 6.472 25.6389 6.38 25.6389 6.248V2.798H24.8829C24.7509 2.798 24.6609 2.824 24.6129 2.876C24.5649 2.928 24.5409 3.02 24.5409 3.152V6.248C24.5409 6.38 24.5649 6.472 24.6129 6.524C24.6609 6.576 24.7509 6.602 24.8829 6.602ZM28.9028 8C28.8028 8 28.7528 7.95 28.7528 7.85V6.878C28.7528 6.786 28.7828 6.726 28.8428 6.698L30.0668 5.972V5.348L28.8428 4.688C28.7828 4.652 28.7528 4.59 28.7528 4.502V2.588C28.7528 2.544 28.7588 2.508 28.7708 2.48C28.7868 2.452 28.8088 2.428 28.8368 2.408L30.1148 1.472C30.1588 1.44 30.1948 1.42 30.2228 1.412C30.2508 1.404 30.2788 1.4 30.3068 1.4H31.7648C31.8648 1.4 31.9148 1.45 31.9148 1.55V2.492C31.9148 2.56 31.9088 2.606 31.8968 2.63C31.8888 2.654 31.8688 2.674 31.8368 2.69L30.7028 3.302V3.998L31.9148 4.598C31.9828 4.626 32.0168 4.686 32.0168 4.778V6.62C32.0168 6.72 31.9828 6.8 31.9148 6.86L30.6368 7.922C30.5728 7.974 30.4928 8 30.3968 8H28.9028Z" fill="white"/>
<path d="M1.13531 8C1.03531 8 0.985313 7.95 0.985313 7.85V6.722C0.985313 6.67 0.987313 6.628 0.991313 6.596C0.999313 6.564 1.02331 6.538 1.06331 6.518L2.63531 5.798V4.73L1.08731 3.77C1.01931 3.73 0.985313 3.67 0.985313 3.59V1.388C0.985313 1.324 0.989313 1.278 0.997313 1.25C1.00531 1.218 1.03531 1.184 1.08731 1.148L2.66531 0.0799997C2.70531 0.0559995 2.74131 0.0379994 2.77331 0.0259993C2.80931 0.00999951 2.85331 0.00199962 2.90531 0.00199962H4.52531C4.62531 0.00199962 4.67531 0.0519996 4.67531 0.151999V1.172C4.67531 1.26 4.64531 1.32 4.58531 1.352L3.01331 2V3.11L4.58531 4.01C4.64531 4.038 4.67531 4.102 4.67531 4.202V6.812C4.67531 6.844 4.66931 6.878 4.65731 6.914C4.64931 6.95 4.62931 6.976 4.59731 6.992L2.71331 7.928C2.68931 7.94 2.65931 7.956 2.62331 7.976C2.59131 7.992 2.55931 8 2.52731 8H1.13531ZM6.08484 8C5.98484 8 5.93484 7.95 5.93484 7.85V0.151999C5.93484 0.0519996 5.98484 0.00199962 6.08484 0.00199962H7.68684C7.78684 0.00199962 7.83684 0.0519996 7.83684 0.151999V1.4H9.29484C9.38684 1.4 9.46684 1.434 9.53484 1.502L10.7348 2.702C10.8028 2.766 10.8368 2.846 10.8368 2.942V7.85C10.8368 7.95 10.7868 8 10.6868 8H9.08484C8.98484 8 8.93484 7.95 8.93484 7.85V3.152C8.93484 2.984 8.85084 2.9 8.68284 2.9H7.83684V7.85C7.83684 7.95 7.78684 8 7.68684 8H6.08484ZM13.7395 8C13.6475 8 13.5675 7.966 13.4995 7.898L12.2995 6.698C12.2315 6.634 12.1975 6.554 12.1975 6.458V2.942C12.1975 2.846 12.2315 2.766 12.2995 2.702L13.4995 1.502C13.5675 1.434 13.6475 1.4 13.7395 1.4H16.9495C17.0495 1.4 17.0995 1.45 17.0995 1.55V7.85C17.0995 7.95 17.0495 8 16.9495 8H15.7015C15.6495 8 15.6095 7.99 15.5815 7.97C15.5575 7.95 15.5295 7.926 15.4975 7.898L15.1975 7.598L14.8975 7.898C14.8335 7.966 14.7535 8 14.6575 8H13.7395ZM14.4415 6.602H14.8615C14.9895 6.602 15.0775 6.576 15.1255 6.524C15.1735 6.472 15.1975 6.38 15.1975 6.248V2.798H14.4415C14.3095 2.798 14.2195 2.824 14.1715 2.876C14.1235 2.928 14.0995 3.02 14.0995 3.152V6.248C14.0995 6.38 14.1235 6.472 14.1715 6.524C14.2195 6.576 14.3095 6.602 14.4415 6.602ZM18.6473 8C18.5473 8 18.4973 7.95 18.4973 7.85V1.55C18.4973 1.45 18.5473 1.4 18.6473 1.4H19.5593C19.6353 1.4 19.7013 1.434 19.7573 1.502L20.3453 2.18L20.9993 1.472C21.0433 1.424 21.0993 1.4 21.1673 1.4H21.8153C21.9153 1.4 21.9653 1.45 21.9653 1.55V2.84C21.9653 2.904 21.9613 2.948 21.9533 2.972C21.9453 2.992 21.9233 3.014 21.8873 3.038L20.3993 4.136V7.85C20.3993 7.95 20.3493 8 20.2493 8H18.6473ZM24.1809 8C24.0889 8 24.0089 7.966 23.9409 7.898L22.7409 6.698C22.6729 6.634 22.6389 6.554 22.6389 6.458V2.942C22.6389 2.846 22.6729 2.766 22.7409 2.702L23.9409 1.502C24.0089 1.434 24.0889 1.4 24.1809 1.4H25.0989C25.1949 1.4 25.2749 1.434 25.3389 1.502L25.6389 1.802V0.151999C25.6389 0.0519996 25.6889 0.00199962 25.7889 0.00199962H27.3909C27.4909 0.00199962 27.5409 0.0519996 27.5409 0.151999V7.85C27.5409 7.95 27.4909 8 27.3909 8H26.1429C26.0909 8 26.0509 7.99 26.0229 7.97C25.9989 7.95 25.9709 7.926 25.9389 7.898L25.6389 7.598L25.3389 7.898C25.2749 7.966 25.1949 8 25.0989 8H24.1809ZM24.8829 6.602H25.3029C25.4309 6.602 25.5189 6.576 25.5669 6.524C25.6149 6.472 25.6389 6.38 25.6389 6.248V2.798H24.8829C24.7509 2.798 24.6609 2.824 24.6129 2.876C24.5649 2.928 24.5409 3.02 24.5409 3.152V6.248C24.5409 6.38 24.5649 6.472 24.6129 6.524C24.6609 6.576 24.7509 6.602 24.8829 6.602ZM28.9028 8C28.8028 8 28.7528 7.95 28.7528 7.85V6.878C28.7528 6.786 28.7828 6.726 28.8428 6.698L30.0668 5.972V5.348L28.8428 4.688C28.7828 4.652 28.7528 4.59 28.7528 4.502V2.588C28.7528 2.544 28.7588 2.508 28.7708 2.48C28.7868 2.452 28.8088 2.428 28.8368 2.408L30.1148 1.472C30.1588 1.44 30.1948 1.42 30.2228 1.412C30.2508 1.404 30.2788 1.4 30.3068 1.4H31.7648C31.8648 1.4 31.9148 1.45 31.9148 1.55V2.492C31.9148 2.56 31.9088 2.606 31.8968 2.63C31.8888 2.654 31.8688 2.674 31.8368 2.69L30.7028 3.302V3.998L31.9148 4.598C31.9828 4.626 32.0168 4.686 32.0168 4.778V6.62C32.0168 6.72 31.9828 6.8 31.9148 6.86L30.6368 7.922C30.5728 7.974 30.4928 8 30.3968 8H28.9028Z" fill="url(#paint0_linear_1_477)"/>
<defs>
<linearGradient id="paint0_linear_1_477" x1="0" y1="3" x2="33" y2="3" gradientUnits="userSpaceOnUse">
<stop stop-color="#FBB500"/>
<stop offset="1" stop-color="#FFE5A1"/>
</linearGradient>
</defs>
</svg>
