<svg width="283" height="50" viewBox="0 0 283 50" fill="none" xmlns="http://www.w3.org/2000/svg">
<g filter="url(#filter0_i_115_144)">
<rect width="283" height="50" fill="url(#paint0_linear_115_144)"/>
</g>
<rect x="0.5" y="0.5" width="282" height="49" stroke="url(#paint1_linear_115_144)"/>
<path d="M106.349 34C106.166 34 106.074 33.9083 106.074 33.725V31.657C106.074 31.5617 106.078 31.4847 106.085 31.426C106.1 31.3673 106.144 31.3197 106.217 31.283L109.099 29.963V28.005L106.261 26.245C106.136 26.1717 106.074 26.0617 106.074 25.915V21.878C106.074 21.7607 106.081 21.6763 106.096 21.625C106.111 21.5663 106.166 21.504 106.261 21.438L109.154 19.48C109.227 19.436 109.293 19.403 109.352 19.381C109.418 19.3517 109.499 19.337 109.594 19.337H112.564C112.747 19.337 112.839 19.4287 112.839 19.612V21.482C112.839 21.6433 112.784 21.7533 112.674 21.812L109.792 23V25.035L112.674 26.685C112.784 26.7363 112.839 26.8537 112.839 27.037V31.822C112.839 31.8807 112.828 31.943 112.806 32.009C112.791 32.075 112.755 32.1227 112.696 32.152L109.242 33.868C109.198 33.89 109.143 33.9193 109.077 33.956C109.018 33.9853 108.96 34 108.901 34H106.349ZM117.975 34C117.799 34 117.652 33.9377 117.535 33.813L115.335 31.613C115.21 31.4957 115.148 31.349 115.148 31.173V22.175C115.148 21.9917 115.24 21.9 115.423 21.9H118.36C118.543 21.9 118.635 21.9917 118.635 22.175V30.733C118.635 31.0777 118.804 31.25 119.141 31.25H120.648V22.175C120.648 21.9917 120.74 21.9 120.923 21.9H123.86C124.043 21.9 124.135 21.9917 124.135 22.175V33.725C124.135 33.9083 124.043 34 123.86 34H117.975ZM126.982 34C126.798 34 126.707 33.9083 126.707 33.725V19.612C126.707 19.4287 126.798 19.337 126.982 19.337H129.919C130.102 19.337 130.194 19.4287 130.194 19.612V22.637L130.744 22.087C130.861 21.9623 131.008 21.9 131.184 21.9H132.867C133.035 21.9 133.182 21.9623 133.307 22.087L135.507 24.287C135.631 24.4043 135.694 24.551 135.694 24.727V31.173C135.694 31.349 135.631 31.4957 135.507 31.613L133.307 33.813C133.182 33.9377 133.035 34 132.867 34H126.982ZM130.194 31.437H131.58C131.822 31.437 131.987 31.3893 132.075 31.294C132.163 31.1987 132.207 31.03 132.207 30.788V25.112C132.207 24.87 132.163 24.7013 132.075 24.606C131.987 24.5107 131.822 24.463 131.58 24.463H130.81C130.575 24.463 130.414 24.5107 130.326 24.606C130.238 24.7013 130.194 24.87 130.194 25.112V31.437ZM138.54 34C138.357 34 138.265 33.9083 138.265 33.725V22.175C138.265 21.9917 138.357 21.9 138.54 21.9H143.545C143.714 21.9 143.861 21.9623 143.985 22.087L145.338 23.44H145.745L147.098 22.087C147.223 21.9623 147.37 21.9 147.538 21.9H149.925C150.094 21.9 150.241 21.9623 150.365 22.087L152.565 24.287C152.69 24.4043 152.752 24.551 152.752 24.727V33.725C152.752 33.9083 152.661 34 152.477 34H149.54C149.357 34 149.265 33.9083 149.265 33.725V25.112C149.265 24.804 149.111 24.65 148.803 24.65H147.252V33.725C147.252 33.9083 147.161 34 146.977 34H144.04C143.857 34 143.765 33.9083 143.765 33.725V25.112C143.765 24.804 143.611 24.65 143.303 24.65H141.752V33.725C141.752 33.9083 141.661 34 141.477 34H138.54ZM155.599 34C155.416 34 155.324 33.9083 155.324 33.725V22.175C155.324 21.9917 155.416 21.9 155.599 21.9H158.525C158.708 21.9 158.8 21.9917 158.8 22.175V33.725C158.8 33.9083 158.708 34 158.525 34H155.599ZM155.544 20.987C155.397 20.987 155.324 20.9137 155.324 20.767V19.37C155.324 19.2233 155.397 19.15 155.544 19.15H158.602C158.734 19.15 158.8 19.2233 158.8 19.37V20.767C158.8 20.9137 158.734 20.987 158.602 20.987H155.544ZM163.891 34C163.722 34 163.576 33.9377 163.451 33.813L161.614 31.987C161.497 31.8623 161.438 31.7157 161.438 31.547V24.463H160.976C160.793 24.463 160.701 24.3713 160.701 24.188V22.175C160.701 21.9917 160.793 21.9 160.976 21.9H161.438V20.525C161.438 20.3417 161.53 20.25 161.713 20.25H164.639C164.822 20.25 164.914 20.3417 164.914 20.525V21.9H165.981C166.164 21.9 166.256 21.9917 166.256 22.175V24.188C166.256 24.3713 166.164 24.463 165.981 24.463H164.914V30.337C164.914 30.4763 164.958 30.59 165.046 30.678L166.124 31.767C166.197 31.833 166.234 31.943 166.234 32.097V33.725C166.234 33.9083 166.142 34 165.959 34H163.891Z" fill="url(#paint2_linear_115_144)"/>
<defs>
<filter id="filter0_i_115_144" x="0" y="0" width="283" height="50" filterUnits="userSpaceOnUse" color-interpolation-filters="sRGB">
<feFlood flood-opacity="0" result="BackgroundImageFix"/>
<feBlend mode="normal" in="SourceGraphic" in2="BackgroundImageFix" result="shape"/>
<feColorMatrix in="SourceAlpha" type="matrix" values="0 0 0 0 0 0 0 0 0 0 0 0 0 0 0 0 0 0 127 0" result="hardAlpha"/>
<feMorphology radius="4" operator="erode" in="SourceAlpha" result="effect1_innerShadow_115_144"/>
<feOffset/>
<feGaussianBlur stdDeviation="2"/>
<feComposite in2="hardAlpha" operator="arithmetic" k2="-1" k3="1"/>
<feColorMatrix type="matrix" values="0 0 0 0 0 0 0 0 0 0 0 0 0 0 0 0 0 0 0.25 0"/>
<feBlend mode="normal" in2="shape" result="effect1_innerShadow_115_144"/>
</filter>
<linearGradient id="paint0_linear_115_144" x1="141.5" y1="0" x2="141.5" y2="50" gradientUnits="userSpaceOnUse">
<stop/>
<stop offset="1" stop-color="#89FF0B"/>
</linearGradient>
<linearGradient id="paint1_linear_115_144" x1="0" y1="0" x2="35.2345" y2="121.721" gradientUnits="userSpaceOnUse">
<stop stop-color="#CFCFCF"/>
<stop offset="1" stop-color="#666666"/>
</linearGradient>
<linearGradient id="paint2_linear_115_144" x1="136" y1="15" x2="136" y2="37" gradientUnits="userSpaceOnUse">
<stop stop-color="white"/>
<stop offset="1" stop-color="#D8D8D8"/>
</linearGradient>
</defs>
</svg>
